<svg xmlns="http://www.w3.org/2000/svg" xmlns:xlink="http://www.w3.org/1999/xlink" width="310" height="387"><defs><path id="a" d="M.4.435h3.601V4.03h-3.6z"/></defs><g fill="none" fill-rule="evenodd"><path fill="#BDE5E5" d="M123.67 152.006c0 4.434-3.602 8.028-8.041 8.028-4.442 0-8.042-3.594-8.042-8.028 0-4.434 3.6-8.029 8.042-8.029 4.44 0 8.04 3.595 8.04 8.029"/><path stroke="#000" stroke-linecap="round" stroke-linejoin="round" stroke-width="3.3" d="M115.378 143.909c4.383 0 7.936 3.548 7.936 7.924s-3.553 7.924-7.936 7.924-7.936-3.548-7.936-7.924"/><path fill="#BDE5E5" d="M195.977 53.305c0 4.434-3.6 8.029-8.04 8.029-4.441 0-8.041-3.595-8.041-8.029 0-4.434 3.6-8.028 8.04-8.028 4.441 0 8.041 3.594 8.041 8.028m-39.379 165.51l-61.3 13.601c-3.836 27.943-14.025 85.201-11.956 92.946 4.452-3.632 13.376-2.605 17.689 3.616 2.552-6.221 11.96-39.724 21.2-57.51 2.738-5.27 8.087-13.572 13.438-16.695 6.985-4.076 20.59-1.42 28.487-1.817l19.685-.988-27.243-33.153z"/><path fill="#47B5BD" d="M142.052 74.952c-2.426-3.769-11.063.026-11.063 9.85v23.305h21.28s4.175-.592 7.762 6.86c2.151 4.47 6.908 31.048 10.769 44.761 2.95 10.48 27.357 14.055 35.05 7.393 7.25-6.28 6.945-55.952 7.172-61.906.284-7.464 16.872-10.36 22.476-.86.917-13.269-2.172-20.124-2.172-20.124s-2.8-11.308-19.504-11.766c-16.704-.456-20.595 10.511-20.595 10.511s-12.127 23.989-19.45 26.274c-7.322 2.285-26.152-25.644-31.725-34.298"/><path stroke="#000" stroke-linecap="round" stroke-linejoin="round" stroke-width="3.3" d="M111.25 109.478H50.613s-8.924-2.743-4.119 11.653c4.137 12.392 17.974 55.251 21.36 63.228 4.985 11.746 11.359 9.426 22.8 9.882"/><path fill="#000" d="M192.42 5.026c-12.457-8.5-29.074-5.059-39.755 1.753-11.607 7.404-11.566 25.422-5.274 35.782 5.237 8.622 15.624-19.712 16.07-19.032 3.34 5.088 11.899 11.16 15.842 13.63 4.326 2.713 12.217-1.66 16.201-7.263.026-.036 4.367 3.849 4.372 3.805 1.071-9.215 2.765-21.7-7.455-28.675"/><path stroke="#000" stroke-linecap="round" stroke-linejoin="round" stroke-width="3.3" d="M192.999 68.156c-11.687 21.933-34 9.511-40.87-14.087"/><path fill="#BDE5E5" d="M240.257 214.883l-.532-2.656s-101.92-.53-122.99-.85c-49.141-.743-51.595 73.34-51.366 82.44 3.203-.875 10.069.153 14.329 6.596.202-5.073 2.315-12.908 2.625-14.278 3.268-14.417 8.65-29.143 16.184-42.092 14.565-25.034 43.176-13.132 61.292.92 16.688 12.943 59.695 24.312 73.811 3.137 5.879-8.82 7.885-23.121 6.647-33.217"/><path stroke="#000" stroke-linecap="round" stroke-linejoin="round" stroke-width="3.3" d="M234.358 111.991c-.55 22.814-1.168 40.396-5.727 62.786-2.973 14.597-16.997 20.175-29.726 20.382-11.123.18-15.246.314-26.331-.46m-54.919 8.682H2.33l44.845-18.278m252.395 19.191h-60.178l-12.359.458 2.24 10.132c1.237 10.095 1.978 24.396-3.9 33.217-14.35 21.526-51.464 7.533-68.741-4.161-6.845-4.632-12.702-7.323-20.269-10.912-14.86-7.046-30.42-4.126-39.229 11.015-7.534 12.949-11.543 27.676-14.812 42.093M277.377 182.36h-28.374m17.847 174.555c6.63 0-7.366-94.131-7.366-94.131m-111.179 14.623s-10.403 106.697-1.892 106.697c2.02 0 4.144-6.004 6.212-15.162M9.65 216.633l-.228 98.014M243.05 95.998c17.39 13.708 15.56 74.026 16.475 85.906"/><path stroke="#000" stroke-linecap="round" stroke-linejoin="round" stroke-width="3.3" d="M262.729 215.261c-.262 9.545-.78 16.496-2.495 25.9-.428 2.35-.966 4.74-2.258 6.75-4.133 6.44-19.321 10.12-26.366 10.76 0 0-.459.458 0 4.113 0 0 17.39 116.978 9.153 116.978"/><path fill="#000" d="M206.563 28.808c-.421.185-.825.42-1.202.711-3.195 2.467-2.326 11.993 1.188 13.37 4.924-2.181 6.766 8.335 8.814 17.01.614 2.602 4.137 4.983 4.576 8.225 6.178-6.626 3.59-27.758-1.27-34.354-3.306-4.487-7.928-6.79-12.106-4.962"/><path stroke="#000" stroke-linecap="round" stroke-linejoin="round" stroke-width="3.3" d="M202.203 45.68a6.913 6.913 0 0 1-1.576 9.66 6.94 6.94 0 0 1-9.676-1.576 6.914 6.914 0 0 1 1.578-9.66M58.162 303.452c3.084 8.68.684 23.094-9.025 27.259-5.936 2.546-40.717-3.708-41.704 6.255-.876 8.886 32.954 11.186 38.373 10.354 4.922-.757.904 3.935-.418 5.52 4.51 1.489 9.01.993 13.689.877m37.527-11.881c-2.747 5.94 4.959 21.242 1.586 24.806-1.833 1.938-13.037-.228-10.303 3.17 1.93 2.4 5.384 1.317 2.015 4.915-2.256 2.41-5.929 3.903-8.9 5.16-7.364 3.116-16.658 6.026-24.748 4.718-10.74-1.735-6.511-11.63-.099-16.374 6.051-4.478 13.455-7.146 18.315-13.12 4.983-6.128 5.787-13.91 4.744-21.5m21.966 1.142s7.551-7.197 7.895-3.77c.343 3.427-5.149 8.91-6.866 8.91m56.634-224.475c-.682-3.064-1.83-5.94-8.694-5.94h-25.17s-.23-9.596 0-24.675c.23-14.877 13.81-9.85 13.81-9.85"/><path fill="#000" d="M178.408 46.077c0 .947-.768 1.713-1.717 1.713a1.714 1.714 0 1 1 0-3.427c.949 0 1.717.767 1.717 1.714"/><g transform="translate(305.718 201.985)"><mask id="b" fill="#fff"><use xlink:href="#a"/></mask><path fill="#000" d="M3.92 2.766a1.798 1.798 0 0 1-2.25 1.183A1.796 1.796 0 1 1 2.736.517 1.797 1.797 0 0 1 3.92 2.766" mask="url(#b)"/></g><path fill="#000" d="M163.305 49.047a1.715 1.715 0 1 1-3.43-.002 1.715 1.715 0 0 1 3.43.002"/></g></svg>