<svg xmlns="http://www.w3.org/2000/svg" xmlns:xlink="http://www.w3.org/1999/xlink" viewBox="0 0 885.8 196.5"><defs><path id="a" d="M0 3h886v182H0z"/></defs><clipPath id="b"><use xlink:href="#a" overflow="visible"/></clipPath><g clip-path="url(#b)"><defs><path id="c" d="M.3 93.8C.3 43.6 39 3 86.8 3h712.6C847.2 3 886 43.6 886 93.8s-38.8 90.8-86.6 90.8H86.8C39 184.5.3 143.9.3 93.8"/></defs><clipPath id="d"><use xlink:href="#c" overflow="visible"/></clipPath><g clip-path="url(#d)"><defs><path id="e" d="M0 0h886v197H0z"/></defs><clipPath id="f"><use xlink:href="#e" overflow="visible"/></clipPath><path clip-path="url(#f)" fill="#edf8f9" d="M-3.5-.8h893.3v189H-3.5z"/></g></g><defs><path id="g" d="M760 0h35v6h-35z"/></defs><clipPath id="h"><use xlink:href="#g" overflow="visible"/></clipPath><g clip-path="url(#h)"><defs><path id="i" d="M791.9 0h-28.5c-1.4 0-2.6 1.2-2.6 2.6s1.2 2.6 2.6 2.6h28.5c1.4 0 2.6-1.2 2.6-2.6S793.3 0 791.9 0z"/></defs><clipPath id="j"><use xlink:href="#i" overflow="visible"/></clipPath><g clip-path="url(#j)"><defs><path id="k" d="M0 0h886v197H0z"/></defs><clipPath id="l"><use xlink:href="#k" overflow="visible"/></clipPath><g opacity=".2" clip-path="url(#l)"><defs><path id="m" d="M0 0h886v197H0z"/></defs><clipPath id="n"><use xlink:href="#m" overflow="visible"/></clipPath><path clip-path="url(#n)" fill="#47b5bd" d="M757-3.8h41.3V9H757z"/></g></g></g><defs><path id="o" d="M849 21h34v6h-34z"/></defs><clipPath id="p"><use xlink:href="#o" overflow="visible"/></clipPath><g clip-path="url(#p)"><defs><path id="q" d="M880.4 21h-28.5c-1.4 0-2.6 1.2-2.6 2.6s1.2 2.6 2.6 2.6h28.5c1.4 0 2.6-1.2 2.6-2.6s-1.2-2.6-2.6-2.6z"/></defs><clipPath id="r"><use xlink:href="#q" overflow="visible"/></clipPath><g clip-path="url(#r)"><defs><path id="s" d="M0 0h886v197H0z"/></defs><clipPath id="t"><use xlink:href="#s" overflow="visible"/></clipPath><path clip-path="url(#t)" fill="#47b5bd" d="M845.5 17.3h41.3v12.8h-41.3z"/></g></g><defs><path id="u" d="M773 191h34v6h-34z"/></defs><clipPath id="v"><use xlink:href="#u" overflow="visible"/></clipPath><g clip-path="url(#v)"><defs><path id="w" d="M804.3 191.3h-28.5c-1.4 0-2.6 1.2-2.6 2.6s1.2 2.6 2.6 2.6h28.5c1.4 0 2.6-1.2 2.6-2.6s-1.2-2.6-2.6-2.6z"/></defs><clipPath id="x"><use xlink:href="#w" overflow="visible"/></clipPath><g clip-path="url(#x)"><defs><path id="y" d="M0 0h886v197H0z"/></defs><clipPath id="z"><use xlink:href="#y" overflow="visible"/></clipPath><g clip-path="url(#z)"><defs><path id="A" d="M622.4 0h240v197h-240z"/></defs><clipPath id="B"><use xlink:href="#A" overflow="visible"/></clipPath><g clip-path="url(#B)"><defs><path id="C" d="M0 0h886v197H0z"/></defs><clipPath id="D"><use xlink:href="#C" overflow="visible"/></clipPath><path clip-path="url(#D)" fill="#47b5bd" d="M769.4 187.5h41.3v12.8h-41.3z"/></g></g></g></g><defs><path id="E" d="M739 0h17v6h-17z"/></defs><clipPath id="F"><use xlink:href="#E" overflow="visible"/></clipPath><g clip-path="url(#F)"><defs><path id="G" d="M752.9 0h-10.5c-1.4 0-2.6 1.2-2.6 2.6s1.2 2.6 2.6 2.6h10.5c1.4 0 2.6-1.2 2.6-2.6S754.3 0 752.9 0z"/></defs><clipPath id="H"><use xlink:href="#G" overflow="visible"/></clipPath><g clip-path="url(#H)"><defs><path id="I" d="M0 0h886v197H0z"/></defs><clipPath id="J"><use xlink:href="#I" overflow="visible"/></clipPath><g opacity=".2" clip-path="url(#J)"><defs><path id="K" d="M0 0h886v197H0z"/></defs><clipPath id="L"><use xlink:href="#K" overflow="visible"/></clipPath><path clip-path="url(#L)" fill="#47b5bd" d="M736-3.8h23.3V9H736z"/></g></g></g><defs><path id="M" d="M750 191h17v6h-17z"/></defs><clipPath id="N"><use xlink:href="#M" overflow="visible"/></clipPath><g clip-path="url(#N)"><defs><path id="O" d="M763.8 191.3h-10.5c-1.4 0-2.6 1.2-2.6 2.6s1.2 2.6 2.6 2.6h10.5c1.4 0 2.6-1.2 2.6-2.6s-1.2-2.6-2.6-2.6z"/></defs><clipPath id="P"><use xlink:href="#O" overflow="visible"/></clipPath><g clip-path="url(#P)"><defs><path id="Q" d="M0 0h886v197H0z"/></defs><clipPath id="R"><use xlink:href="#Q" overflow="visible"/></clipPath><g clip-path="url(#R)"><defs><path id="S" d="M622.4 0h240v197h-240z"/></defs><clipPath id="T"><use xlink:href="#S" overflow="visible"/></clipPath><g clip-path="url(#T)"><defs><path id="U" d="M0 0h886v197H0z"/></defs><clipPath id="V"><use xlink:href="#U" overflow="visible"/></clipPath><path clip-path="url(#V)" fill="#47b5bd" d="M746.9 187.5h23.3v12.8h-23.3z"/></g></g></g></g></svg>