<svg xmlns="http://www.w3.org/2000/svg" xmlns:xlink="http://www.w3.org/1999/xlink" viewBox="0 0 928.9 270.2"><defs><path id="a" d="M51 5h242v242H51z"/></defs><clipPath id="b"><use xlink:href="#a" overflow="visible"/></clipPath><g clip-path="url(#b)"><defs><circle id="c" cx="171.8" cy="126" r="120.8"/></defs><clipPath id="d"><use xlink:href="#c" overflow="visible"/></clipPath><g clip-path="url(#d)"><defs><path id="e" d="M0 0h929v271H0z"/></defs><clipPath id="f"><use xlink:href="#e" overflow="visible"/></clipPath><g clip-path="url(#f)"><defs><path id="g" d="M0 0h807v271H0z"/></defs><clipPath id="h"><use xlink:href="#g" overflow="visible"/></clipPath><g clip-path="url(#h)"><defs><path id="i" d="M0 0h929v271H0z"/></defs><clipPath id="j"><use xlink:href="#i" overflow="visible"/></clipPath><path clip-path="url(#j)" fill="#e4f0fe" d="M47.3 1.5h249v249h-249z"/></g></g></g></g><defs><path id="k" d="M687 5h242v242H687z"/></defs><clipPath id="l"><use xlink:href="#k" overflow="visible"/></clipPath><g clip-path="url(#l)"><defs><circle id="m" cx="808.5" cy="126" r="120.8"/></defs><clipPath id="n"><use xlink:href="#m" overflow="visible"/></clipPath><g clip-path="url(#n)"><defs><path id="o" d="M0 0h929v271H0z"/></defs><clipPath id="p"><use xlink:href="#o" overflow="visible"/></clipPath><g clip-path="url(#p)"><defs><path id="q" d="M363.8 0h565.3v271H363.8z"/></defs><clipPath id="r"><use xlink:href="#q" overflow="visible"/></clipPath><g clip-path="url(#r)"><defs><path id="s" d="M0 0h929v271H0z"/></defs><clipPath id="t"><use xlink:href="#s" overflow="visible"/></clipPath><path clip-path="url(#t)" fill="#e4f0fe" d="M684 1.5h249v249H684z"/></g></g></g></g><defs><path id="u" d="M171.8 5.3h664.5v241.5H171.8z"/></defs><clipPath id="v"><use xlink:href="#u" overflow="visible"/></clipPath><g clip-path="url(#v)"><defs><path id="w" d="M0 0h929v271H0z"/></defs><clipPath id="x"><use xlink:href="#w" overflow="visible"/></clipPath><g clip-path="url(#x)"><defs><path id="y" d="M0 0h807v271H0z"/></defs><clipPath id="z"><use xlink:href="#y" overflow="visible"/></clipPath><g clip-path="url(#z)"><defs><path id="A" d="M0 0h929v271H0z"/></defs><clipPath id="B"><use xlink:href="#A" overflow="visible"/></clipPath><path clip-path="url(#B)" fill="#e4f0fe" d="M168 1.5h672v249H168z"/></g></g></g><defs><path id="C" d="M426 0h68v11h-68z"/></defs><clipPath id="D"><use xlink:href="#C" overflow="visible"/></clipPath><g clip-path="url(#D)"><defs><path id="E" d="M432.2 0h55.9c3 0 5.5 2.4 5.5 5.5s-2.4 5.5-5.5 5.5h-55.9c-3 0-5.5-2.4-5.5-5.5.1-3.1 2.4-5.5 5.5-5.5z"/></defs><clipPath id="F"><use xlink:href="#E" overflow="visible"/></clipPath><g clip-path="url(#F)"><defs><path id="G" d="M0 0h929v271H0z"/></defs><clipPath id="H"><use xlink:href="#G" overflow="visible"/></clipPath><g opacity=".3" clip-path="url(#H)"><defs><path id="I" d="M0 0h929v271H0z"/></defs><clipPath id="J"><use xlink:href="#I" overflow="visible"/></clipPath><path clip-path="url(#J)" fill="#0166ff" d="M423-3.8h74.3v18.4H423z"/></g></g></g><defs><path id="K" d="M134 259h67v12h-67z"/></defs><clipPath id="L"><use xlink:href="#K" overflow="visible"/></clipPath><g clip-path="url(#L)"><defs><path id="M" d="M139.6 259.4h55.9c3 0 5.5 2.4 5.5 5.5s-2.4 5.5-5.5 5.5h-55.9c-3 0-5.5-2.4-5.5-5.5s2.5-5.5 5.5-5.5z"/></defs><clipPath id="N"><use xlink:href="#M" overflow="visible"/></clipPath><g clip-path="url(#N)"><defs><path id="O" d="M0 0h929v271H0z"/></defs><clipPath id="P"><use xlink:href="#O" overflow="visible"/></clipPath><g clip-path="url(#P)"><defs><path id="Q" d="M0 0h807v271H0z"/></defs><clipPath id="R"><use xlink:href="#Q" overflow="visible"/></clipPath><g clip-path="url(#R)"><defs><path id="S" d="M0 0h929v271H0z"/></defs><clipPath id="T"><use xlink:href="#S" overflow="visible"/></clipPath><path clip-path="url(#T)" fill="#0166ff" d="M130.4 255.6h74.3V274h-74.3z"/></g></g></g></g><defs><path id="U" d="M0 30h67v12H0z"/></defs><clipPath id="V"><use xlink:href="#U" overflow="visible"/></clipPath><g clip-path="url(#V)"><defs><path id="W" d="M5.5 30.8h55.9c3 0 5.5 2.4 5.5 5.5s-2.4 5.5-5.5 5.5H5.5c-3 0-5.5-2.4-5.5-5.5 0-3.2 2.4-5.5 5.5-5.5z"/></defs><clipPath id="X"><use xlink:href="#W" overflow="visible"/></clipPath><g clip-path="url(#X)"><defs><path id="Y" d="M0 0h929v271H0z"/></defs><clipPath id="Z"><use xlink:href="#Y" overflow="visible"/></clipPath><g opacity=".3" clip-path="url(#Z)"><defs><path id="aa" d="M0 0h929v271H0z"/></defs><clipPath id="ab"><use xlink:href="#aa" overflow="visible"/></clipPath><path clip-path="url(#ab)" fill="#0166ff" d="M-3.8 27h74.3v18.4H-3.8z"/></g></g></g><defs><path id="ac" d="M504 0h31v11h-31z"/></defs><clipPath id="ad"><use xlink:href="#ac" overflow="visible"/></clipPath><g clip-path="url(#ad)"><defs><path id="ae" d="M510.2 0H529c3 0 5.5 2.4 5.5 5.5S532.1 11 529 11h-18.8c-3 0-5.5-2.4-5.5-5.5.1-3.1 2.4-5.5 5.5-5.5z"/></defs><clipPath id="af"><use xlink:href="#ae" overflow="visible"/></clipPath><g clip-path="url(#af)"><defs><path id="ag" d="M0 0h929v271H0z"/></defs><clipPath id="ah"><use xlink:href="#ag" overflow="visible"/></clipPath><g opacity=".3" clip-path="url(#ah)"><defs><path id="ai" d="M0 0h929v271H0z"/></defs><clipPath id="aj"><use xlink:href="#ai" overflow="visible"/></clipPath><path clip-path="url(#aj)" fill="#0166ff" d="M501-3.8h37.2v18.4H501z"/></g></g></g><defs><path id="ak" d="M211 259h31v12h-31z"/></defs><clipPath id="al"><use xlink:href="#ak" overflow="visible"/></clipPath><g clip-path="url(#al)"><defs><path id="am" d="M217.1 259.4h18.8c3 0 5.5 2.4 5.5 5.5s-2.4 5.5-5.5 5.5h-18.8c-3 0-5.5-2.4-5.5-5.5s2.4-5.5 5.5-5.5z"/></defs><clipPath id="an"><use xlink:href="#am" overflow="visible"/></clipPath><g clip-path="url(#an)"><defs><path id="ao" d="M0 0h929v271H0z"/></defs><clipPath id="ap"><use xlink:href="#ao" overflow="visible"/></clipPath><g clip-path="url(#ap)"><defs><path id="aq" d="M0 0h807v271H0z"/></defs><clipPath id="ar"><use xlink:href="#aq" overflow="visible"/></clipPath><g clip-path="url(#ar)"><defs><path id="as" d="M0 0h929v271H0z"/></defs><clipPath id="at"><use xlink:href="#as" overflow="visible"/></clipPath><path clip-path="url(#at)" fill="#0166ff" d="M207.8 255.6H245V274h-37.2z"/></g></g></g></g><defs><path id="au" d="M78 30h30v12H78z"/></defs><clipPath id="av"><use xlink:href="#au" overflow="visible"/></clipPath><g clip-path="url(#av)"><defs><path id="aw" d="M83.5 30.8h18.8c3 0 5.5 2.4 5.5 5.5s-2.4 5.5-5.5 5.5H83.5c-3 0-5.5-2.4-5.5-5.5 0-3.2 2.4-5.5 5.5-5.5z"/></defs><clipPath id="ax"><use xlink:href="#aw" overflow="visible"/></clipPath><g clip-path="url(#ax)"><defs><path id="ay" d="M0 0h929v271H0z"/></defs><clipPath id="az"><use xlink:href="#ay" overflow="visible"/></clipPath><g opacity=".3" clip-path="url(#az)"><defs><path id="aA" d="M0 0h929v271H0z"/></defs><clipPath id="aB"><use xlink:href="#aA" overflow="visible"/></clipPath><path clip-path="url(#aB)" fill="#0166ff" d="M74.3 27h37.2v18.4H74.3z"/></g></g></g><defs><path id="aC" d="M700 219h31v12h-31z"/></defs><clipPath id="aD"><use xlink:href="#aC" overflow="visible"/></clipPath><g clip-path="url(#aD)"><defs><path id="aE" d="M706.1 219.9h18.8c3 0 5.5 2.4 5.5 5.5 0 3-2.4 5.5-5.5 5.5h-18.8c-3 0-5.5-2.4-5.5-5.5 0-3 2.5-5.5 5.5-5.5z"/></defs><clipPath id="aF"><use xlink:href="#aE" overflow="visible"/></clipPath><g clip-path="url(#aF)"><defs><path id="aG" d="M0 0h929v271H0z"/></defs><clipPath id="aH"><use xlink:href="#aG" overflow="visible"/></clipPath><g clip-path="url(#aH)"><defs><path id="aI" d="M0 0h807v271H0z"/></defs><clipPath id="aJ"><use xlink:href="#aI" overflow="visible"/></clipPath><g clip-path="url(#aJ)"><defs><path id="aK" d="M0 0h929v271H0z"/></defs><clipPath id="aL"><use xlink:href="#aK" overflow="visible"/></clipPath><path clip-path="url(#aL)" fill="#0166ff" d="M696.8 216.1H734v18.4h-37.2z"/></g></g></g></g><defs><path id="aM" d="M655 222h25v9h-25z"/></defs><clipPath id="aN"><use xlink:href="#aM" overflow="visible"/></clipPath><g clip-path="url(#aN)"><defs><path id="aO" d="M660 222h15.2c2.4 0 4.4 1.9 4.4 4.4 0 2.4-1.9 4.4-4.4 4.4H660c-2.4 0-4.4-2-4.4-4.4 0-2.5 2-4.4 4.4-4.4z"/></defs><clipPath id="aP"><use xlink:href="#aO" overflow="visible"/></clipPath><g clip-path="url(#aP)"><defs><path id="aQ" d="M0 0h929v271H0z"/></defs><clipPath id="aR"><use xlink:href="#aQ" overflow="visible"/></clipPath><g clip-path="url(#aR)"><defs><path id="aS" d="M0 0h807v271H0z"/></defs><clipPath id="aT"><use xlink:href="#aS" overflow="visible"/></clipPath><g clip-path="url(#aT)"><defs><path id="aU" d="M0 0h929v271H0z"/></defs><clipPath id="aV"><use xlink:href="#aU" overflow="visible"/></clipPath><path clip-path="url(#aV)" fill="#0166ff" d="M651.9 218.3h31.5v16.3h-31.5z"/></g></g></g></g></svg>