<svg xmlns="http://www.w3.org/2000/svg" xmlns:xlink="http://www.w3.org/1999/xlink" width="335" height="388" viewBox="0 0 335 388">
    <defs>
        <path id="a" d="M.817.88h3.408v3.405H.817z"/>
    </defs>
    <g fill="none" fill-rule="evenodd">
        <path fill="#ADC2FF" d="M90.657 226.075c-1.033.457-2.458 1.669-3.942 3.168-.903-5.572 1.222-11 2.21-15.288 12.025.008 38.659-4.338 50.684-4.33-18.028 7.332-31.149 8.592-48.952 16.45m-4.654 3.903c-.4.423-.8.857-1.196 1.302-.048-.308.264-.72 1.196-1.302m113.647-31.66a89.202 89.202 0 0 1-23.106-6.099c-3.658-1.52-7.119-3.563-10.606-5.53-3.509-1.981-7.046-3.883-10.841-5.093-5.41-1.726-13.164 1.695-18.776 2.564-13.274 2.053-26.64-1.977-40.01-3.253-13.068-1.25-28.956 1.209-37.228 12.664-9.795 13.56-10.812 36.33-10.508 52.36.346 18.223-.805 32.523.062 52.003.23 5.206 1.443 11.677 4.331 16.017 2.728 4.096 22.01 1.373 28.453.191a61.29 61.29 0 0 0 3.605 8.034c2.856 5.292 5.571 11.558 10.397 15.151 4.825 3.592 13.635 4.478 19.105 1.972 2.79-1.278 5.227-3.877 5.278-6.942.023-1.511-.523-2.967-1.06-4.38l-12.976-34.083c-3.91-10.27-3.944-26.364.916-36.219 4.082-8.276 19.081-9.986 28.158-11.688 9.076-1.7 15.578-1.105 24.692-2.597 17.626-2.887 34.26-10.85 51.552-18.181 14.296-6.06 23.393-22.077 24.26-35.496-2.535 6.676-30.403 9.264-35.698 8.605"/>
        <path fill="#36F" d="M320.052 87.696c-9.139-19.993-26.322-29.293-33.202-45.732-.581-1.391 2.42-4.62.915-4.626-3.618-.018-8.014 1.318-7.798 5.194.216 3.874-14.98 22.041-11.696 23.809 4.663 2.509-.714.441 3.898 3.03 4.537 2.546 9.08 5.249 12.996 8.658 1.715 1.49 4.3 4.372 6.066 5.627 1.223.868 6.498 3.096 6.498 4.762 0 .336-13.226 5.305-25.643 7.602-9.553 1.768-18.693.907-21.13.942-6.98.1-7.205 3.735-10.852 4.172-10.085 1.207-16.356 3.97-24.598 4.526-4.12.278-8.31.252-12.32-.667-2.957-.678-8.22-2.1-9.33-5.521-1.303-4.028 1.93-12.218 3.413-16.038 1.097-2.885.217-6.685-1.284-8.616-6.193-7.967-11.43-16.69-15.419-25.961-1.783-4.147-11.473-23.254-10.615-23.294 11.6-.553 20.652-.025 32.152 1.574.735.102 1.535.197 2.17-.186.574-.347.872-1.004 1.135-1.62 3.758-8.77 6.381-17.442 13.08-24.171-2.125 1.378-4.795 1.222-7.246 1.222-4.388.493-8.764 1.707-13.156 2.322a188.776 188.776 0 0 1-25.637 1.815c-4.907.012-9.891-.158-14.636 1.089-4.745 1.246-9.33 4.183-11.212 8.71-1.678 4.036-.986 8.637.05 12.882 3.983 16.313 11.779 31.27 15.918 47.53 1.774 6.967 4.132 15.311 3.633 22.494-.592 8.535-5.808 15.797-9.485 23.238-6.628 13.418 19.26 30.915-2.185 51.857 1.117 2.26 2.558 9.077 4.233 10.932 11.805 4.915 24.524 6.778 37.689 7.046 9.878.202 34.23-1.428 43.658-6.912-.542-9.543-12.384-18.537-7.776-34.247 5.459-18.609 3.092-20.82 18.022-25.482 12.847-4.01 29.167-7.778 41.877-12.255 9.521-3.355 20.04-7.472 29.612-13.151 3.027-1.796-.333-9.357-1.795-12.554"/>
        <path stroke="#20201E" stroke-linecap="round" stroke-linejoin="round" stroke-width="3.25" d="M29.796 180.046c-11.314 4.212-24.51 6.435-26.71 16.64-2.14 9.932.879 67.917 1.17 78.308l9.507 3.027s2.599 27.921 6.498 27.921 3.899-19.48 3.899-19.48M224.329 78.174c10.177 1.482 16.287-3.328 18.505-8.345 0 0-8.33 17.268-7.731 25.04M242.367 52.745l8.79 1.075M148.924 174.778c-22.459 17.079-44.34.599-69.53 6.357-26.631 6.088-29.518 34.065-30.41 56.748-.605 15.4-.592 30.83-.418 46.24 0 0-1.012 23.118 1.587 27.664 2.6 4.545 8.448 5.844 11.697 5.844 0 0 6.823-.974 10.072-1.948 3.249-.974 6.08 14.121 6.08 14.121-2.509 3.762-8.9 5.07-13.228 5.323-.482.028-5.002-.379-4.865-.71l2.784-6.606-8.317-1.415M188.34 70.36c-.298-.298-19.142-31.883-22.334-45.034 13.412-.391 26.672 1.784 40.082 1.393-1.152-6.23 10.179-22.051 13.54-25.096-22.513 1.185-35.675 5.37-57.61 5.37-8.21-.38-14.315 2.351-15.554 11.558-1.277 9.49 16.902 58.559 20.44 75.422 2.399 11.43-5.062 17.67-9.967 26.446-5.285 9.454 5.236 20.669 6.746 30.497.698 4.539.971 9.212-.542 13.623-.743 2.169-1.872 4.174-3.176 6.054-1.467 2.117-4.18 4.228-5.051 6.657-3.676 10.246 25.562 13.982 31.049 13.699"/>
        <path stroke="#20201E" stroke-width="3.25" d="M223.45 46.175c-2.21 5.476-7.611 8.524-12.065 6.81-4.454-1.715-6.272-7.543-4.062-13.018 2.209-5.474 7.61-8.524 12.064-6.808 4.454 1.714 6.272 7.541 4.062 13.016zM241.678 54.983c-2.174 5.486-7.775 8.47-12.514 6.668-4.735-1.803-6.815-7.712-4.64-13.195 2.172-5.485 7.774-8.471 12.512-6.667 4.736 1.802 6.815 7.71 4.642 13.194z"/>
        <path stroke="#20201E" stroke-linecap="round" stroke-linejoin="round" stroke-width="3.25" d="M215.294 42.067s-.47 2.205 1.82 3.327c1.608.787 3.378-.264 4.584-1.305 1.19-1.032 2.155-2.112 3.882-1.345.926.413 1.734 1.083 2.167 2.012.37.797.434 1.693.457 2.561.07 2.64 1.671 4.204 4.07 5.082 2.736 1.002 4.514-1.587 4.514-1.587M72.248 144.208c-3.056-13.108-29.331-13.282-31.193-3.248v30.3c0 5.066 11.301 7.804 14.73 7.797M71.598 149.727c10.072 2.273 8.02 20.659.65 21.43M45.82 143.557s5.631 5.52 19.279 1.95M225.6 225.863l48.519 18.182-55.45 29.435-45.92-22.077 17.112-7.147M73.223 144.208c8.954.583 11.414 12.265 11.048 19.48 5.584-1.533 0 0 0 0s27.924-8.966 42.69-11.426c3.689-13.523 9.841-25.817 14.761-38.112 1.231-2.458 4.922-6.146 8.68-5.104l10.543 3.721"/>
        <path stroke="#20201E" stroke-linecap="round" stroke-linejoin="round" stroke-width="3.25" d="M158.237 203.132c-19.31 4.236-39.416 15.298-58.601 19.995-10.509 2.574-19.032 8.28-21.23 19.366-2.105 10.614-1.117 21.606-.653 32.33.506 11.696 1.588 23.361 3.944 34.843 2.202 10.719 5.139 24.019 15.89 29.391 6.5 2.599 15.597-2.596 15.597-10.388 0-6.493-2.599-11.688-3.899-16.882-4.633-15.047-2.708-52.055 2.166-56.709 12.465-11.902 35.233-8.894 51.204-12.611 20.56-4.786 58.5-11.618 64.89-35.394 2.282-8.494 1.115-19.787 3.428-28.273 1.166-4.282 9.73-38.905 12.336-38.625 8.526.921 69.833 23.671 81.664 27.25l.695.21M236.897 102.341c5.386-5.08 16.923-5.296 20.042-5.08 9.797.674 17.45-1.038 26.737-4.107 1.134-.374 15.577-4.17 15.14-4.462-9.573-5.978-14.757-14.597-30.312-20.724-.199-1.495 0-5.779 3.804-11.844 5.695-9.082 11.75-20.434 11.75-20.434 2.325 5.22 4.586 10.823 7.796 15.53 10.546 15.474 31.224 28.3 30.289 49.378 0 0-23.727 12.105-41.275 16.09 0 0-36.792 7.772-42.774 15.842"/>
        <path stroke="#20201E" stroke-linecap="round" stroke-linejoin="round" stroke-width="3.25" d="M85.892 228.672c.21-5.27.462-12.982 3.9-14.285 9.421-3.571 21.984-2.272 32.056-3.896"/>
        <path fill="#20201E" d="M260.35 17.367c2.832-5.729 8.427-9.948 15.252-10.731 10.686-1.224 20.34 6.44 21.565 17.119 1.224 10.677-6.445 20.324-17.13 21.548a19.405 19.405 0 0 1-12.54-2.83"/>
        <path stroke="#20201E" stroke-linecap="round" stroke-linejoin="round" stroke-width="3.25" d="M214.312 10.738c5.237.14 9.723.44 13.86 4.902M207.584 20.144c2.592 1.595 8.077 2.99 8.077 2.69"/>
        <path fill="#20201E" d="M272.382 29.172c-5.417-11.717-13.624-11.03-22.66-18.102-6.445-5.045-20.424-3.422-27.118.508-4.073 2.391-6.609 6.073-8.262 10.415-1.804 4.734-3.37 9.552-4.943 14.365.582-1.782 3.167-3.27 4.486-4.492 2.25-2.082 5.769-5.617 8.157-7.536 4.562 3.148 12.383 9.67 23.929 12.154l4.586-8.369-.399 9.688c2.059.268 4.184.383 6.383.274 2.543 5.429-6.952 11.643-8.176 23.116-.074.686-2.553 11.938-2.594 12.553.023-.353 6.075-2.683 6.758-3.05 7.119-3.844 13.274-9.856 17.114-17.102 3.64-6.873 6.162-17.018 2.739-24.422"/>
        <path stroke="#20201E" stroke-linecap="round" stroke-linejoin="round" stroke-width="3.25" d="M123.581 259.408c27.292-.866 42.887 22.51 62.382 38.093 1.3 1.299 3.898 1.299 4.756 1.355M114.065 350.474c5.442-2.719 2.722-9.969 5.443-12.69 6.2-6.186 12.089 13.809 12.962 17.352 1.58 4.967-10.142 10.633-13.258 12.768-12.393 8.483-30.736 18.314-46.208 17.906 0 0-3.045.348-2.924-6.493.15-8.535 10.33-13.802 15.378-19.48 3.347-3.764 5.005-6.35 6.498-13.853 0 0 1.734 3.464 9.097 4.762M45.592 336.921c-4.048 12.35-9.998 13.688-13.043 15.496-3.696 2.192-10.14 5.54-9.472 10.558.217 1.629 1.084 4.654 2.6 5.52 1.408-.108 13.12-3.267 25.562-7.352 11.58-3.8 23.32-9.236 25.49-11.036"/>
        <g transform="translate(330.802 167.972)">
            <mask id="b" fill="#fff">
                <use xlink:href="#a"/>
            </mask>
            <path fill="#20201E" d="M4.148 3.087a1.703 1.703 0 1 1-3.253-1.01 1.703 1.703 0 0 1 3.253 1.01" mask="url(#b)"/>
        </g>
        <path fill="#20201E" d="M241.74 239.35a1.704 1.704 0 0 1-3.255-1.01 1.703 1.703 0 1 1 3.254 1.01"/>
    </g>
</svg>
