<svg xmlns="http://www.w3.org/2000/svg" viewBox="0 0 637.02 207.88"><defs><style>.cls-1{fill:#4e4e4e}.cls-2{fill:#36f}.cls-3{fill:#7ccc33}.cls-4{fill:#47b5bd}.cls-5{fill:#f66}.cls-6{fill:#ffd900}</style></defs><g id="Layer_2" data-name="Layer 2"><g id="Layer_1-2" data-name="Layer 1"><path class="cls-1" d="M543.92 125.91h-34.56l39.25-45.63a13.45 13.45 0 0 0 2.69-5 7.7 7.7 0 0 0 .51-2.77 7.89 7.89 0 0 0-.39-2.44 7.58 7.58 0 0 0-7.21-5.53H495a7.54 7.54 0 0 0-5.94 3l-.22.3v.05a7.83 7.83 0 0 0 6.27 12.48h33.34l-39.14 45.49a12 12 0 0 0-3.08 7.93v.33a7.56 7.56 0 0 0 7.48 7.48h50.52a7.48 7.48 0 0 0 7.47-7v-.83a7.82 7.82 0 0 0-7.78-7.86zm89.47-61.21A8.12 8.12 0 0 0 622 66.26l-21 29.85v-.06l-19-27.4c-2.13-3.14-4.59-5.26-8.51-5.26a8.41 8.41 0 0 0-8.61 8.28 10.21 10.21 0 0 0 2.12 6.15l25.25 34.3a.11.11 0 0 1 0 .08v22.21a8.55 8.55 0 0 0 8.87 8.61c4.75-.13 8.36-4.39 8.36-9.14v-20.76L635.64 76a8.12 8.12 0 0 0-2.25-11.3zm-160.15 66.63L446 69.9c-1.89-4.24-5.24-6.8-9.92-6.8h-1c-4.69 0-8.14 2.56-10 6.8l-27.2 61.43a9.08 9.08 0 0 0-1 3.68 7.91 7.91 0 0 0 7.92 8 8.44 8.44 0 0 0 7.92-5.35L418 125.2h32.75a7.91 7.91 0 0 0 1.83-.23l5.18 12.12C459.3 140.7 462 143 466 143a8.14 8.14 0 0 0 8.14-8.25 8.49 8.49 0 0 0-.9-3.42zM435.33 84L446 109.37h-21.35zm-170.05 58.05h-21.55a8.51 8.51 0 0 1-8.46-8.55 6.85 6.85 0 0 1 6.64-6.91h24.65c13.85 0 23.19-9.65 23.19-23.42V103c0-13.76-9.34-23.19-23.19-23.19H252.2v23.62a8.5 8.5 0 0 1-8.47 8.54 8.5 8.5 0 0 1-8.46-8.54V72.91a8.51 8.51 0 0 1 8.46-8.55h21.55c24.18 0 40.89 17 40.89 38.84v.23c0 21.86-16.71 38.62-40.89 38.62zm110.35-15.43h-35.2v-15.54h28a7.83 7.83 0 0 0 0-15.65h-28V79.79h34.65a7.5 7.5 0 0 0 7.58-7.47 7.6 7.6 0 0 0-7.58-7.59h-41.72a8.4 8.4 0 0 0-8.47 8.46v60a8.4 8.4 0 0 0 8.47 8.47h42.27a7.5 7.5 0 0 0 7.58-7.48 7.59 7.59 0 0 0-7.58-7.56z"/><path id="Fill-67" class="cls-2" d="M64.12 38H9.71a9 9 0 0 0 0 18h54.41a9 9 0 0 0 0-18"/><path id="Fill-67-2" data-name="Fill-67" class="cls-3" d="M157.54 38h-53.95a9 9 0 0 0 0 18h53.95a9 9 0 0 0 0-18"/><path id="Fill-67-3" data-name="Fill-67" class="cls-4" d="M107.73 0H53.32a9 9 0 0 0 0 18h54.41a9 9 0 0 0 0-18"/><path id="Fill-67-4" data-name="Fill-67" class="cls-5" d="M20 0H9.37a9 9 0 0 0 0 18H20a9 9 0 0 0 0-18"/><path id="Fill-67-5" data-name="Fill-67" class="cls-6" d="M107.9 189.87H97.27a9 9 0 0 0 0 18h10.63a9 9 0 0 0 0-18"/><path id="Fill-67-6" data-name="Fill-67" class="cls-2" d="M63.58 189.87H53a9 9 0 0 0 0 18h10.58a9 9 0 0 0 0-18"/><path id="Fill-67-7" data-name="Fill-67" class="cls-3" d="M19.6 189.87H9a9 9 0 0 0 0 18h10.6a9 9 0 0 0 0-18"/><path id="Fill-67-8" data-name="Fill-67" class="cls-1" d="M80.71 151.89h-71a9 9 0 0 0 0 18h71a9 9 0 0 0 0-18"/><path id="Fill-67-9" data-name="Fill-67" class="cls-3" d="M119.29 151.89h-10.63a9 9 0 0 0-9 9c0 5 4.77 9 9.73 9h10.63c5 0 8.21-4 8.21-9a9 9 0 0 0-9-9"/><path id="Fill-67-10" data-name="Fill-67" class="cls-5" d="M157.1 151.89h-10.63a9 9 0 0 0-9 9c0 5 4.78 9 9.73 9h10.63c5 0 8.21-4 8.21-9a9 9 0 0 0-9-9"/><path id="Fill-67-11" data-name="Fill-67" class="cls-6" d="M66.89 113.92H9.71a9 9 0 0 0 0 18h57.18a9 9 0 0 0 0-18"/><path id="Fill-67-12" data-name="Fill-67" class="cls-4" d="M125.47 113.92H95.69a9 9 0 0 0 0 18h29.78a9 9 0 0 0 0-18"/><path id="Fill-67-13" data-name="Fill-67" class="cls-2" d="M173.8 113.92h-10.63a9 9 0 0 0 0 18h10.63a9 9 0 0 0 0-18"/><path id="Fill-67-14" data-name="Fill-67" class="cls-5" d="M132.49 76h-71a9 9 0 0 0 0 18h71a9 9 0 0 0 0-18"/><path id="Fill-67-15" data-name="Fill-67" class="cls-1" d="M20.34 76H9.71a9 9 0 0 0 0 18h10.63a9 9 0 0 0 0-18"/><path id="Fill-67-16" data-name="Fill-67" class="cls-6" d="M173.8 76h-10.63a9 9 0 0 0 0 18h10.63a9 9 0 0 0 0-18"/></g></g></svg>