<svg xmlns="http://www.w3.org/2000/svg" viewBox="0 0 1443 492" enable-background="new 0 0 1443 492"><g transform="translate(-192 -38)"><defs><filter id="a" filterUnits="userSpaceOnUse" x="192" y="38.9" width="1150.2" height="491.1"><feColorMatrix values="1 0 0 0 0 0 1 0 0 0 0 0 1 0 0 0 0 0 1 0"/></filter></defs><mask maskUnits="userSpaceOnUse" x="192" y="38.9" width="1150.2" height="491.1" id="b"><path d="M0 0h1853v868H0V0z" fill="#fff" filter="url(#a)"/></mask><g mask="url(#b)"><path d="M1342.2 530L568.3 83.2C443 10.9 290.8 29.8 192 119.9V530h1150.2z" fill="#ffefef"/><path d="M718 472.8h-32.4c-3.9 0-7-3.1-7-7s3.1-7 7-7H718c3.9 0 7 3.1 7 7 0 3.8-3.1 7-7 7zm-60.6 0c-3.9 0-7.1-3.1-7.1-7s3.1-7 7-7 7 3.1 7 7c.2 3.8-3 7-6.9 7zM928 496.7H796.9c-3.9 0-7-3.1-7-7s3.1-7 7-7H928c3.9 0 7 3.1 7 7 0 3.8-3.1 7-7 7zm-107.1-23.9h-74.7c-3.9 0-7-3.1-7-7s3.1-7 7-7h74.7c3.9 0 7 3.1 7 7 0 3.8-3.1 7-7 7zM192 508.4v13.2c2.7-1 4.6-3.6 4.6-6.6 0-3.1-1.9-5.7-4.6-6.6zM215.1 283H192v14.1h23.1c3.9 0 7-3.1 7-7 0-4-3.1-7.1-7-7.1z" fill="#f66" fill-opacity=".3"/></g></g><path d="M1443 456.6c-93.9-128.2-276.1-166.1-422.2-82.7L814 492h629v-35.4z" fill="#f66"/></svg>