<svg id="Layer_1" xmlns="http://www.w3.org/2000/svg" viewBox="0 0 2163 346"><style>.st0{fill:#f5fbef}.st1{fill:#7ccc33}.st2{fill:#ddf1c9}</style><path class="st0" d="M2163 170.5C2163 77.4 2085.1 2 1989.1 2H556.9C460.9 2 383 77.4 383 170.5S460.9 339 556.9 339h1432.2c96 0 173.9-75.4 173.9-168.5"/><ellipse class="st0" cx="178.5" cy="168" rx="178.5" ry="168"/><path class="st1" d="M324.3 330h-72.8c-3.8 0-6.9-3.1-6.9-6.9 0-3.8 3.1-6.9 6.9-6.9h72.8c3.8 0 6.9 3.1 6.9 6.9 0 3.8-3.1 6.9-6.9 6.9zm323-316.2h-72.8c-3.8 0-6.9-3.1-6.9-6.9 0-3.8 3.1-6.9 6.9-6.9h72.8c3.8 0 6.9 3.1 6.9 6.9 0 3.8-3.1 6.9-6.9 6.9zm48.2 0h-20.6c-3.8 0-6.9-3.1-6.9-6.9 0-3.8 3.1-6.9 6.9-6.9h20.6c3.8 0 6.9 3.1 6.9 6.9 0 3.8-3.1 6.9-6.9 6.9zm521 316h-20.6c-3.8 0-6.9-3.1-6.9-6.9 0-3.8 3.1-6.9 6.9-6.9h20.6c3.8 0 6.9 3.1 6.9 6.9 0 3.8-3.1 6.9-6.9 6.9zM224 330h-24.7c-3.8 0-6.9-3.1-6.9-6.9 0-3.8 3.1-6.9 6.9-6.9H224c3.8 0 6.9 3.1 6.9 6.9 0 3.8-3.1 6.9-6.9 6.9z" transform="translate(424 16)"/><path class="st2" d="M88 163.6H63.2c-3.8 0-6.9-3.1-6.9-6.9 0-3.8 3.1-6.9 6.9-6.9H88c3.8 0 6.9 3.1 6.9 6.9-.1 3.8-3.1 6.9-6.9 6.9zm5.5 22h-66c-3.8 0-6.9-3.1-6.9-6.9 0-3.8 3.1-6.9 6.9-6.9h66c3.8 0 6.9 3.1 6.9 6.9-.1 3.8-3.2 6.9-6.9 6.9zm692.3-79.8h-66c-3.8 0-6.9-3.1-6.9-6.9 0-3.8 3.1-6.9 6.9-6.9h66c3.8 0 6.9 3.1 6.9 6.9 0 3.8-3.1 6.9-6.9 6.9zm249 121h-66c-3.8 0-6.9-3.1-6.9-6.9 0-3.8 3.1-6.9 6.9-6.9h66c3.8 0 6.9 3.1 6.9 6.9 0 3.8-3.1 6.9-6.9 6.9zm229 67h-66c-3.8 0-6.9-3.1-6.9-6.9 0-3.8 3.1-6.9 6.9-6.9h66c3.8 0 6.9 3.1 6.9 6.9 0 3.8-3.1 6.9-6.9 6.9zm-20-263h-66c-3.8 0-6.9-3.1-6.9-6.9 0-3.8 3.1-6.9 6.9-6.9h66c3.8 0 6.9 3.1 6.9 6.9 0 3.8-3.1 6.9-6.9 6.9zm-551.1 75.1h-30.2c-3.8 0-6.9-3.1-6.9-6.9 0-3.8 3.1-6.9 6.9-6.9h30.2c3.8 0 6.9 3.1 6.9 6.9-.1 3.8-3.1 6.9-6.9 6.9z" transform="translate(424 16)"/><path class="st1" d="M347.7 330c-3.8 0-6.9-3.1-6.9-6.9 0-3.8 3.1-6.9 6.9-6.9 3.8 0 6.9 3.1 6.9 6.9 0 3.8-3.1 6.9-6.9 6.9z" transform="translate(424 16)"/><path class="st2" d="M6.9 185.6c-3.8 0-6.9-3.1-6.9-6.9 0-3.8 3.1-6.9 6.9-6.9 3.8 0 6.9 3.1 6.9 6.9-.1 3.8-3.1 6.9-6.9 6.9z" transform="translate(424 16)"/></svg>