<svg xmlns="http://www.w3.org/2000/svg" xmlns:xlink="http://www.w3.org/1999/xlink" width="268" height="438"><defs><path id="a" d="M.659.384h3.513v3.515H.66z"/></defs><g fill="none" fill-rule="evenodd"><path fill="#000" d="M197.453 53.854l24.337 5.14-13.795 41.108-20.589-4.473 3.573-4.915 10.27-9.381h-10.717l-4.02 4.243z"/><path fill="#D5E8B3" d="M92.083 226.323s9.585 2.076 20.152.337c12.636-2.08 26.678-7.888 27.406-5.698 1.342 4.021 5.36 8.043 5.36 8.043l14.736-16.087 45.549 152.806-28.133 12.733-26.794-75.732-46.219 84.444-30.812-21.446s44.878-40.212 42.869-81.092c-.67-14.744-8.037-22.787-17.415-31.5-9.379-8.712-6.7-26.808-6.7-26.808m27.465-139.399l22.106.67 6.027 10.723 16.746-3.35s-1.34 7.371 3.35 10.722c4.688 3.352 6.698 6.032 6.698 6.032l-14.067 42.222-32.823-43.562-8.037-23.457z"/><path fill="#7CCC33" d="M153.709 96.977l13.395 104.55s-25.451 18.764-46.217 18.095c-20.765-.67-36.842-4.692-36.842-4.692s6.7-80.423 9.379-91.145c2.679-10.724 8.037-30.83 22.104-48.255l3.697-11.615 24.25 10.47.529 12.43 9.705 10.162z"/><path stroke="#000" stroke-linecap="round" stroke-linejoin="round" stroke-width="3.25" d="M196.153 102.465c-2.493 7.47-11.298 5.907-17.062 11.109 0 0-6.592 19.67-13.326 34.337m-74.18 76.814c-.171 5.62-3.975 17.073 13.009 36.504 18.976 21.716 7.585 51.55 2.225 59.593"/><path stroke="#000" stroke-linecap="round" stroke-linejoin="round" stroke-width="3.25" d="M145.671 240.397c5.359 16.516 17.886 38.098 8.333 55.31l-3.71 6.685-18.038 32.499-28.786 53.62-24.7-14.667 4.02-9.382 19.34 10.644m-25.454 9.384l-20.011 42.736 17.19 1.447 6.049-2.636 12.038 2.77 26.347.193s6.578-4.67-.192-7.994c-3.077-1.51-6.23-3.02-16.689-4.214-23.293-2.66-4.513-23.937-4.513-23.937s-7.421 7.318-12.78 7.277m23.375-292.433s-15.38 52.61-9.687 61.059c5.69 8.448 47.198 60.246 47.198 60.246m3.33-29.205s-17.985-32.108-19.573-38.507c-3.041-12.239 7.743-23.594 12.225-34.157m12.726 93.157l-20.755 22.225M19.069 393.423h26.126m-42.87 0h7.59m161.433 42.225h43.763M152.334 26.149c4.335-7.407 9.179-4.35 18.372-2.711 4.706.838 15.365-6.593 5.802-15.5-8.732-8.14-25.886-3.516-25.886-3.516s-21.342-10.49-33.128 9.164c-6.986 11.652 2.054 29.105 3.727 38.74m47.089 42.06s2.4-15.511 22.367-19.523M178.058 89.32s16.59-11.574 20.865-8.595c4.273 2.977-5.717 8.286-9.525 11.61-3.806 3.323-6.044 11.228-11.39 10.864"/><path stroke="#000" stroke-linecap="round" stroke-linejoin="round" stroke-width="3.25" d="M191.22 74.86l7.597-20.938 22.442 4.402-13.088 39.987-14.5-2.997m-36.207-45.306c1.843-1.217 5.243 2.19 7.758.795 7.22-4.001.254-14.472 2.831-20.483m-25.23-2.17a6.314 6.314 0 0 0-8.927.263 6.32 6.32 0 0 0 4.387 10.649m-23.077 23.512l-3.83 10.756 32.628 13.485-.528-12.43z"/><path fill="#000" d="M161 37.489a1.716 1.716 0 1 1-3.201-1.239A1.716 1.716 0 1 1 161 37.49"/><path fill="#FFF" d="M199.408 93.352a1.716 1.716 0 1 1-3.202-1.24 1.717 1.717 0 0 1 3.202 1.24"/><g transform="translate(221.534 433.416)"><mask id="b" fill="#fff"><use xlink:href="#a"/></mask><path fill="#000" d="M4.093 2.662a1.756 1.756 0 1 1-3.355-1.04 1.756 1.756 0 1 1 3.355 1.04" mask="url(#b)"/></g><path stroke="#000" stroke-linecap="round" stroke-linejoin="round" stroke-width="3.25" d="M136.962 218.281c-32.545 21.29-59.062-1.528-59.062-1.528.992-7.993 5.403-75.52 11.62-101.069 6.215-25.55 21.857-42.353 21.857-42.353m48.36 242.128l39.703 94.195s5.387 10.578 8.174 9.144c2.429-1.249 13.738-5.705 14.972-8.658 1.234-2.953-2.18-3.226-.12-5.073 4.737-4.234 13.685-3.656 19.664-5.227 6.199-1.634 23.085-14.398 23.085-14.398s3.254-5.888-2.575-6.955c-5.83-1.069-24.228 6.07-27.577 7.655"/><path stroke="#000" stroke-linecap="round" stroke-linejoin="round" stroke-width="3.25" d="M207.329 377.92c5.269 16.405 14.177 7.845 14.177 7.845s-4.225-14.687 2.093-14.61c6.32.076 2.633 17.225 2.633 17.225M150.208 86.785l4.444 1.163-2.283-8.396m45.018 294.441l15.153-5.454-28.454-86.485-26.358-53.05m-.632-160.23s-2.06 6.015-7.386 1.95l-15.427-15.3v-8.04m12.399 52.726l2.406-.025"/></g></svg>