<svg xmlns="http://www.w3.org/2000/svg" xmlns:xlink="http://www.w3.org/1999/xlink" viewBox="0 0 885.8 203.3"><defs><path id="a" d="M-.1 3h886v182H-.1z"/></defs><clipPath id="b"><use xlink:href="#a" overflow="visible"/></clipPath><g clip-path="url(#b)"><defs><path id="c" d="M.1 93.8C.1 43.6 38.9 3 86.7 3h712.6c47.8 0 86.6 40.6 86.6 90.8s-38.8 90.8-86.6 90.8H86.7C38.9 184.5.1 143.9.1 93.8"/></defs><clipPath id="d"><use xlink:href="#c" overflow="visible"/></clipPath><g clip-path="url(#d)"><defs><path id="e" d="M-.1 0h886v204H-.1z"/></defs><clipPath id="f"><use xlink:href="#e" overflow="visible"/></clipPath><path clip-path="url(#f)" fill="#fff3e5" d="M-3.6-.8h893.3v189H-3.6z"/></g></g><defs><path id="g" d="M75.9 178h36v7h-36z"/></defs><clipPath id="h"><use xlink:href="#g" overflow="visible"/></clipPath><g clip-path="url(#h)"><defs><path id="i" d="M78.9 184.5h29.3c1.6 0 3-1.4 3-3s-1.4-3-3-3H78.9c-1.6 0-3 1.4-3 3s1.3 3 3 3z"/></defs><clipPath id="j"><use xlink:href="#i" overflow="visible"/></clipPath><g clip-path="url(#j)"><defs><path id="k" d="M-.1 0h886v204H-.1z"/></defs><clipPath id="l"><use xlink:href="#k" overflow="visible"/></clipPath><g clip-path="url(#l)"><defs><path id="m" d="M22.6 0h240v204h-240z"/></defs><clipPath id="n"><use xlink:href="#m" overflow="visible"/></clipPath><g clip-path="url(#n)"><defs><path id="o" d="M-.1 0h886v204H-.1z"/></defs><clipPath id="p"><use xlink:href="#o" overflow="visible"/></clipPath><path clip-path="url(#p)" fill="#ff8500" d="M72.1 174.8h42.8v13.5H72.1z"/></g></g></g></g><defs><path id="q" d="M116.9 178h16v7h-16z"/></defs><clipPath id="r"><use xlink:href="#q" overflow="visible"/></clipPath><g clip-path="url(#r)"><defs><path id="s" d="M120.1 184.5h9.8c1.6 0 3-1.4 3-3s-1.4-3-3-3h-9.8c-1.6 0-3 1.4-3 3s1.4 3 3 3z"/></defs><clipPath id="t"><use xlink:href="#s" overflow="visible"/></clipPath><g clip-path="url(#t)"><defs><path id="u" d="M-.1 0h886v204H-.1z"/></defs><clipPath id="v"><use xlink:href="#u" overflow="visible"/></clipPath><g clip-path="url(#v)"><defs><path id="w" d="M22.6 0h240v204h-240z"/></defs><clipPath id="x"><use xlink:href="#w" overflow="visible"/></clipPath><g clip-path="url(#x)"><defs><path id="y" d="M-.1 0h886v204H-.1z"/></defs><clipPath id="z"><use xlink:href="#y" overflow="visible"/></clipPath><path clip-path="url(#z)" fill="#ff8500" d="M113.4 174.8h23.3v13.5h-23.3z"/></g></g></g></g><defs><path id="A" d="M147.9 12h16v7h-16z"/></defs><clipPath id="B"><use xlink:href="#A" overflow="visible"/></clipPath><g clip-path="url(#B)"><defs><path id="C" d="M150.9 18.8h9.8c1.6 0 3-1.4 3-3s-1.4-3-3-3h-9.8c-1.6 0-3 1.4-3 3s1.3 3 3 3z"/></defs><clipPath id="D"><use xlink:href="#C" overflow="visible"/></clipPath><g clip-path="url(#D)"><defs><path id="E" d="M-.1 0h886v204H-.1z"/></defs><clipPath id="F"><use xlink:href="#E" overflow="visible"/></clipPath><g clip-path="url(#F)"><defs><path id="G" d="M22.6 0h240v204h-240z"/></defs><clipPath id="H"><use xlink:href="#G" overflow="visible"/></clipPath><g clip-path="url(#H)"><defs><path id="I" d="M-.1 0h886v204H-.1z"/></defs><clipPath id="J"><use xlink:href="#I" overflow="visible"/></clipPath><path clip-path="url(#J)" fill="#ff8500" d="M144.1 9h23.3v13.5h-23.3z"/></g></g></g></g><defs><path id="K" d="M225.9 0h16v6h-16z"/></defs><clipPath id="L"><use xlink:href="#K" overflow="visible"/></clipPath><g clip-path="url(#L)"><defs><path id="M" d="M228.9 6h9.8c1.6 0 3-1.4 3-3s-1.4-3-3-3h-9.8c-1.6 0-3 1.4-3 3s1.3 3 3 3z"/></defs><clipPath id="N"><use xlink:href="#M" overflow="visible"/></clipPath><g clip-path="url(#N)"><defs><path id="O" d="M-.1 0h886v204H-.1z"/></defs><clipPath id="P"><use xlink:href="#O" overflow="visible"/></clipPath><g clip-path="url(#P)"><defs><path id="Q" d="M22.6 0h240v204h-240z"/></defs><clipPath id="R"><use xlink:href="#Q" overflow="visible"/></clipPath><g clip-path="url(#R)"><defs><path id="S" d="M-.1 0h886v204H-.1z"/></defs><clipPath id="T"><use xlink:href="#S" overflow="visible"/></clipPath><path clip-path="url(#T)" fill="#ffd5a7" d="M222.1-3.8h23.3V9.7h-23.3z"/></g></g></g></g><defs><path id="U" d="M222.9 9h33v7h-33z"/></defs><clipPath id="V"><use xlink:href="#U" overflow="visible"/></clipPath><g clip-path="url(#V)"><defs><path id="W" d="M226.6 15.8h26.3c1.6 0 3-1.4 3-3s-1.4-3-3-3h-26.3c-1.6 0-3 1.4-3 3s1.4 3 3 3z"/></defs><clipPath id="X"><use xlink:href="#W" overflow="visible"/></clipPath><g clip-path="url(#X)"><defs><path id="Y" d="M-.1 0h886v204H-.1z"/></defs><clipPath id="Z"><use xlink:href="#Y" overflow="visible"/></clipPath><g clip-path="url(#Z)"><defs><path id="aa" d="M22.6 0h240v204h-240z"/></defs><clipPath id="ab"><use xlink:href="#aa" overflow="visible"/></clipPath><g clip-path="url(#ab)"><defs><path id="ac" d="M-.1 0h886v204H-.1z"/></defs><clipPath id="ad"><use xlink:href="#ac" overflow="visible"/></clipPath><path clip-path="url(#ad)" fill="#ffd5a7" d="M219.9 6h39.8v13.5h-39.8z"/></g></g></g></g><defs><path id="ae" d="M-.1 35h33v7h-33z"/></defs><clipPath id="af"><use xlink:href="#ae" overflow="visible"/></clipPath><g clip-path="url(#af)"><defs><path id="ag" d="M3.6 41.3h26.3c1.6 0 3-1.4 3-3s-1.4-3-3-3H3.6c-1.6 0-3 1.4-3 3s1.4 3 3 3z"/></defs><clipPath id="ah"><use xlink:href="#ag" overflow="visible"/></clipPath><g clip-path="url(#ah)"><defs><path id="ai" d="M-19.1 0h886v204h-886z"/></defs><clipPath id="aj"><use xlink:href="#ai" overflow="visible"/></clipPath><path clip-path="url(#aj)" fill="#ffd5a7" d="M-3.1 31.5h39.8V45H-3.1z"/></g></g><defs><path id="ak" d="M542.9 197h33v7h-33z"/></defs><clipPath id="al"><use xlink:href="#ak" overflow="visible"/></clipPath><g clip-path="url(#al)"><defs><path id="am" d="M572.6 203.3h-26.3c-1.6 0-3-1.4-3-3s1.4-3 3-3h26.3c1.6 0 3 1.4 3 3s-1.3 3-3 3z"/></defs><clipPath id="an"><use xlink:href="#am" overflow="visible"/></clipPath><g clip-path="url(#an)"><defs><path id="ao" d="M-76.1 0h886v204h-886z"/></defs><clipPath id="ap"><use xlink:href="#ao" overflow="visible"/></clipPath><path clip-path="url(#ap)" fill="#ffd5a7" d="M539.6 193.5h39.8V207h-39.8z"/></g></g><defs><path id="aq" d="M66.9 178h6v7h-6z"/></defs><clipPath id="ar"><use xlink:href="#aq" overflow="visible"/></clipPath><g clip-path="url(#ar)"><defs><path id="as" d="M69.9 184.5c1.6 0 3-1.4 3-3s-1.4-3-3-3-3 1.4-3 3 1.3 3 3 3z"/></defs><clipPath id="at"><use xlink:href="#as" overflow="visible"/></clipPath><g clip-path="url(#at)"><defs><path id="au" d="M-.1 0h886v204H-.1z"/></defs><clipPath id="av"><use xlink:href="#au" overflow="visible"/></clipPath><g clip-path="url(#av)"><defs><path id="aw" d="M22.6 0h240v204h-240z"/></defs><clipPath id="ax"><use xlink:href="#aw" overflow="visible"/></clipPath><g clip-path="url(#ax)"><defs><path id="ay" d="M-.1 0h886v204H-.1z"/></defs><clipPath id="az"><use xlink:href="#ay" overflow="visible"/></clipPath><path clip-path="url(#az)" fill="#ff8500" d="M63.1 174.8h13.5v13.5H63.1z"/></g></g></g></g><defs><path id="aA" d="M257.9 9h7v7h-7z"/></defs><clipPath id="aB"><use xlink:href="#aA" overflow="visible"/></clipPath><g clip-path="url(#aB)"><defs><path id="aC" d="M261.1 15.8c1.6 0 3-1.4 3-3s-1.4-3-3-3-3 1.4-3 3 1.4 3 3 3z"/></defs><clipPath id="aD"><use xlink:href="#aC" overflow="visible"/></clipPath><g clip-path="url(#aD)"><defs><path id="aE" d="M-.1 0h886v204H-.1z"/></defs><clipPath id="aF"><use xlink:href="#aE" overflow="visible"/></clipPath><path clip-path="url(#aF)" fill="#ffd5a7" d="M254.4 6h13.5v13.5h-13.5z"/></g></g></svg>