<svg xmlns="http://www.w3.org/2000/svg" xmlns:xlink="http://www.w3.org/1999/xlink" width="598" height="507"><defs><path id="a" d="M.518.336h18.904v19.535H.518z"/></defs><g fill="none" fill-rule="evenodd"><path fill="#FFF" d="M93.343 198.595c0-5.964-4.889-10.801-10.918-10.801-.28 0-.556.013-.83.034-2.24-6.306-8.308-10.829-15.448-10.829-.353 0-.703.015-1.05.037C61.977 166.609 52.228 159 40.677 159c-13.01 0-23.733 9.652-25.274 22.111-.436-.04-.876-.064-1.324-.064C6.304 181.047 0 187.394 0 195.223c0 7.828 6.304 14.175 14.079 14.175.139 0 .274-.008.411-.012v.012h68.706v-.031c5.67-.391 10.147-5.062 10.147-10.772"/><path fill="#20201E" d="M549.748 499.483a1.542 1.542 0 1 1-2.945-.914 1.542 1.542 0 0 1 2.945.913"/><path fill="#F66" d="M517.59 237.691l-4.706 10.973-55.494 60.941-2.547-25.67v-22.73l7.843-15.676 12.362-15.116s-24.127 2.575-27.265 9.63c-3.138 7.053-11.766 21.162-10.98 39.973.784 18.812.784 37.623-5.501 40.763-9.403 4.705-17.228 12.78-24.65 20.047 13.219-2.408 13.004 14.48 11.586 22.526.577-3.275 15.68-10.004 18.564-12.01v23.516s10.119 2.31 10.302 2.35c10.408 2.26 9.458 9.057 2.73 16.315 6.236-.97 12.231-.612 18.487-1.076 8.51-.632 17.023-1.196 25.54-1.717 28.824-1.765 35.591-9.994 42.651-19.988 8.232-11.654 12.285-29.79 13.689-43.325 1.421-13.712 4.833-27.29 4.493-41.143-.329-13.417-4.596-28.047-16.063-36.133-8.81-6.213-15.11-7.894-23.003-15.78-6.471-6.467 1.962 2.546 1.962 2.546"/><path fill="#F7CDCD" d="M381.898 305.882s-22.72-28.032-21.571-56.238c0 0-15.388 6.74-23.098 1.19-3.529-2.542-6.262-6.036-8.612-9.693-7.202-11.204-10.409-22.493-14.532-34.97-1.539-4.655-4.94-19.424-4.94-19.424l17.065-12.937s-1.768-1.763 5.88 18.225c7.648 19.986 18.827 32.33 18.827 32.33s11.765-14.695 17.648-23.513c5.882-8.818 18.235 11.17 18.235 11.17l-.588 18.223c8.238-9.406 16.471-31.744 25.884-39.975 2.98-2.606 20.436 5.479 23.382 7.295 11.911 7.343 10.728 18.8 10.737 30.916 0 0-12.55 13.913-14.119 31.156-1.568 17.245-.785 37.623-.785 37.623s-40.784 18.027-49.413 8.622"/><path stroke="#20201E" stroke-linecap="round" stroke-linejoin="round" stroke-width="3.026" d="M386.8 212.021s-12.353-19.987-18.235-11.17c-5.883 8.819-17.648 23.515-17.648 23.515s-11.18-12.345-18.826-32.331c-7.649-19.988-5.88-18.225-5.88-18.225l-17.066 12.937s3.402 14.77 4.94 19.423c4.123 12.478 7.33 23.767 14.531 34.97 2.35 3.658 5.084 7.152 8.613 9.694 7.71 5.55 23.097-1.19 23.097-1.19-1.149 28.206 21.572 56.238 21.572 56.238m4.314-75.637c8.238-9.406 16.471-31.744 25.884-39.975 2.98-2.606 20.435 5.479 23.382 7.295 11.911 7.343 10.728 18.8 10.737 30.915"/><path fill="#F7CDCD" d="M128.556 265.124s10.196 4.702 12.549 14.109c2.353 9.405.784 45.46.784 45.46l8.628 2.352 12.55 15.676-24.315 11.757-17.256-29.784-4.465-33.516 4.465-12.73 7.06-13.324z"/><path fill="#F66" d="M108.163 311.369l7.843 29-3.922 3.92 10.98 27.433 23.926 3.665s5.617 21.832-7.491 21.207c-13.108-.623-81.143-3.118-91.754-8.732-10.61-5.614-3.745-61.753 0-87.953 1.797-12.563 7.647-22.573 18.496-29.16 11.497-6.982 24.06-9.437 32.4 2.935-.058.056-.707-.714-.696-.724 3.516 12.77 6.819 25.605 10.218 38.409"/><path stroke="#20201E" stroke-linecap="round" stroke-linejoin="round" stroke-width="3.026" d="M577.984 399.35l-139.417.785 35.883 6.466-59.785 18.403-77.56-20.45-.896-69.264 77.56 16.07.68 59.943M250.913 309.018s-3.65 5.388-8.672 7.97c-9.088 4.677-22.664 8.19-27.211 10.84-7.989 4.658-18.386 15.41-22.943 27.63-14.902 39.975-14.706 67.603-12.352 74.657 2.353 7.054 73.53 25.865 75.883 23.515 2.355-2.351 7.843-10.581 0-12.934-7.844-2.351-39.217-6.27-47.062-21.162-7.843-14.892 17.062-48.792 17.062-48.792m10.34 88.949c-25.484 15.602-51.28 31.265-73.285 45.278 5.077 0 3.766-2.362 0 0 107.065.391 212.95.391 320.014.391 22.354-29.393 42.354-59.96 65.49-89.744 0 8.634-.512.707 0 0 .394 26.256.394 50.946 0 76.813M276.794 356.046c-5.495 9.573-.579 17.645 3.075 26.65 3.779 9.318-2.132 16.188-3.678 25.251m6.487-67.773s9.412 11.17 10.587 26.454c1.007 13.105-3.528 37.034 10.002 35.86M75.834 362.911s8.739-63.625 5.617-68.614m17.479-19.961l17.622 67.26s-2.642 2.291-5.14 2.602c-2.496.312 11.849 26.544 11.849 26.544m19.631-43.89l5.709-.806 14.582 15.269-32.863 19.433"/><path stroke="#20201E" stroke-linecap="round" stroke-linejoin="round" stroke-width="3.026" d="M522.098 278.449l-15 77.303-53.824 18.811-6.177 2.645c-1.765-.882-20.001-3.82-23.824 4.997-2.354 5.427-4.413 16.166-4.413 16.166s1.766 2.94 2.942.588c1.176-2.351 4.705-12.051 5.588-13.226 0 0-.294 5.878 1.766 5.878"/><path stroke="#20201E" stroke-linecap="round" stroke-linejoin="round" stroke-width="3.026" d="M513.862 216.724s-4.706 11.17 1.766 17.638c7.894 7.885 14.193 9.566 23.003 15.779 11.467 8.086 15.734 22.716 16.063 36.133.34 13.852-3.072 27.432-4.493 41.143-1.403 13.535-5.457 31.671-13.69 43.325-7.058 9.994-13.825 18.223-42.65 19.987-28.824 1.764-44.118 3.233-44.118 3.233"/><path stroke="#20201E" stroke-linecap="round" stroke-linejoin="round" stroke-width="3.026" d="M461.51 369.566l-4.12-59.96 57.062-75.246-.002 32.92-12.942-1.176 9.413 15.284-48.235 29.98M301.499 305.8s-4.867 7.098-2.262 12.62c2.604 5.522-1.505 7.567-4.969 6.369-3.463-1.197-6.122 5.97-8.758 8.063-2.638 2.092-10.22 5.478-15.665.592-5.445-4.886-16.673-9.23-20.588-3.19-3.915 6.04-5.397 8.531-5.397 8.531m-22.141-212.567c6.442 8.538 4.211 16.25 8.901 25.414.899 2.844-1.805 6.245-6.397 4.87-.091.91-.273 2.727.4 3.865m-52.538 96.919s-5.882-21.158-6.472-25.277c-1.189-8.315-2.81-16.82-2.035-25.252.903-9.846 11.416-14.514 17.123-21.939 3.54-4.604 4.328-13.947 4.328-13.947m-32.476 158.777s.548-13.678 2.74-20.243c2.19-6.565 3.833-18.054 5.476-13.13 1.643 4.924.548 9.3.548 13.677 0 4.377 1.095 9.301 1.095 9.301m3.287 14.772s12.599-11.49 13.695-13.131c1.094-1.641 3.836-9.3 5.478-13.13 1.643-3.829 3.835-9.847 1.643-12.036l-2.19-2.188"/><path stroke="#20201E" stroke-linecap="round" stroke-linejoin="round" stroke-width="3.026" d="M161.867 306.123l9.857 7.66 22.458-36.11-23.005-10.394-20.267 31.732m94.12-45.252c7.594-2.14 25.884-2.351 32.943-8.23 0-25.866 2.419-74.226 2.419-74.226s-13.53-1.177-19.412 1.175c0 10.417-.835 20.804-1.49 31.196-.369 5.868-5.732 27.315-5.048 28.922-1.795-.128-18.571-6.956-27.92-10.435-10.623-3.953-21.318-7.717-32.015-11.473m2.285 40.72c10.375.334 21.372-.17 31.767.587m46.471-87.589l5.294-17.636s-1.765-13.522-3.529-14.108m-12.354 35.858s-10-19.987-7.06-21.162c2.942-1.175 5.295 2.351 5.883 5.29h10.589l3.53-31.155-14.119-1.765-3.528 24.69m213.887 39.005c-10.153 6.455-1.68 18.475-6.537 27.3-.96 1.744 2.095 2.428 4.942 1.518 2.848-.909 3.024 5.006 3.884 7.055.858 2.048 4.371 8.37 6.774 8.598m-370.209 2.351c0 4.737 2.72 7.729 7.539 7.772 2.164.02 4.126-.726 5.514-2.427.502-.615 2.398-6.911 2.221-6.922l3.858.215c.342 3.326-.175 7.943 3.958 8.804 8.519 1.773 8.712-6.537 9.334-12.445-4.382.419-10.435-.835-13.292 3.426h-3.858c-.414 0-1.129-1.738-1.503-2.024-3.051-2.325-9.632-1.49-13.395-1.83h-.161l-13.548-11.03m35.619-7.507c3.896 6.458 2.103 14.946 2.103 14.946s-1.644-4.695-5.565-2.736m1.177 16.46c1.236 4.367 1.177 15.088-5.882 10.974m-2.303 10.861c-3.689 10.115-16.4 4.627-22.382.054-4.008-3.064-8.075-9.86-13.13-11.126-8.886-2.225-7.154 16.67-13.572 20.518-6.242 3.742-23.719 7.485-27.464 33.683-3.745 26.198-10.612 82.337 0 87.95 10.612 5.614 78.645 8.11 91.754 8.734 13.108.623 7.49-21.209 7.49-21.209L67.093 361.04m363.462-192.215a17.29 17.29 0 0 0-.044-1.993c-1.027-12.63-9.175-26.7-16.565-36.628-5.412-7.267-13.026-11.72-22.108-12.391-7.86-.581-17.64-.204-24.781 3.254-20.708 10.025-28.568 73.906 4.718 75.669 2.648.141 5.214-.648 7.465-2.013 2.026-1.228 3.569-3.96 5.59-4.732-5.767 2.207-10.494-2.859-12.346-8.441-.257-.773-1.61-1.411-.783-2.155 1.143-1.029 3.319-4.264 4.004-4.83.45-.371.458-.806-.307-.6-1.98.531-5.009 1.945-6.174 1.095-1.42-1.035-.118-5.16-.531-7.716-.218-1.348-.76-2.027-2.088-2.292-1.457-.289-3.79.33-4.467-1.462-.683-1.806 1.25-3.814 1.637-5.5.785-3.417.744-7.433 2.677-10.454 1.822-2.844.163-5.323 1.267-8.413.807-2.257 3.034-6.084 5.154-7.346-.38.226 6.08 5.788 6.55 6.16 2.118 1.682 4.51 3.018 7.094 3.838 4.318 1.367 12.172-.37 13.679 5.482 1.61 6.256-2.994 10.853.433 17.033 3.924 7.08 1.167 10.24 6.854 16.326 1.18 1.264 4.919 2.401 6.561 2.959 9.75 3.308 16.217-6.214 16.511-14.85z"/><path fill="#20201E" d="M211.854 124.299c4.246-2.387 14.787-1.99 15.397-8.527.756-8.092-15.386-10.362-20.834-10.236-18.32.427-29.57 13.402-39.195 28.232-5.11 7.873-8.702 30.33.218 37.162 1.74 1.332 3.898 1.974 6.003 2.587 3.197.932 6.454 1.873 9.784 1.814 5.699-.1 18.795-10.841 12.211-16.982-2.971-2.772-4.274-11.007-.867-14.006 2.528-2.224 4.624.484 6.438-.504 6.283-3.427 4.306-11.384 7.493-16.796.57-.965 1.79-1.866 3.352-2.744m273.579 55.055c-6.467-2.796-9.4 2.734-15.091-3.724-3.645-4.138-9.492-13.293-4.464-18.47 10.094-10.386 22.914 2.398 32.539 4.85 5.888 1.501 13.789-.76 18.96 3.095 3.798 2.832 4.497 6.29 6.05 10.773 1.552 4.484 2.637 6.665 3.65 14.856 1.012 8.193 2.06 13.378-1.579 17.712-3.636 4.333-10.49 8.716-10.299 3.28.19-5.437 1.97-9.394.417-13.879-1.552-4.484-2.718-10.247-6.435-9.495-3.703.747-8.138 1.049-7.862 5.732.739 12.547-7.63 3.766-8.984-2.93-1.979-9.779-4.066-10.569-6.902-11.8m-368.014 29.704c1.64.855 13.11 3.974 19.158-2.551 16.55-17.858-38.778-28.676-51.338-14.925-5.957 6.523-8.961 17.158-7.951 30.745.849 11.393 8.564 15.929 10.926 15.606 2.364-.325.676-9.783.224-14.501-.88-9.181 1.714-11.48 6.007-11 7.426.83 1.603 12.396 7.853 13.36 4.312.666 9.93-19.439 15.12-16.734m255.035-55.279a1.512 1.512 0 0 0 1.954.861 1.505 1.505 0 0 0 .864-1.948 1.511 1.511 0 0 0-1.954-.862 1.504 1.504 0 0 0-.864 1.949"/><path fill="#FFF" d="M153 71.015c0-3.467 2.842-6.278 6.346-6.278a5.9 5.9 0 0 1 .482.02c1.302-3.666 4.83-6.295 8.98-6.295.205 0 .409.009.61.021C171.23 52.423 176.898 48 183.612 48c7.562 0 13.795 5.61 14.69 12.852a8.52 8.52 0 0 1 .77-.037c4.52 0 8.184 3.69 8.184 8.24 0 4.55-3.664 8.24-8.183 8.24-.081 0-.16-.006-.24-.008v.007h-39.935v-.018c-3.296-.227-5.898-2.942-5.898-6.26"/><path fill="#FFEFEF" d="M374.284 26.712c0-4.024 3.298-7.287 7.366-7.287.189 0 .375.01.56.023 1.511-4.254 5.605-7.305 10.421-7.305.239 0 .475.01.709.024C395.444 5.133 402.02 0 409.814 0c8.777 0 16.011 6.511 17.05 14.917.295-.027.592-.043.894-.043 5.245 0 9.498 4.282 9.498 9.563 0 5.281-4.253 9.563-9.498 9.563-.094 0-.185-.006-.277-.008V34H381.13v-.021c-3.825-.264-6.846-3.415-6.846-7.267"/><path fill="#20201E" d="M430.981 405.38a1.512 1.512 0 0 0 1.955.862 1.505 1.505 0 0 0 .863-1.948 1.512 1.512 0 0 0-1.953-.861 1.505 1.505 0 0 0-.865 1.948M214.84 142.38a1.512 1.512 0 0 0 1.954.861 1.505 1.505 0 0 0 .865-1.948 1.512 1.512 0 0 0-1.955-.861 1.505 1.505 0 0 0-.863 1.948m74.708 167.54a1.513 1.513 0 0 0 1.954.86 1.507 1.507 0 1 0-1.09-2.81 1.505 1.505 0 0 0-.864 1.95m7.232 130.272a1.511 1.511 0 0 0 2.007.73 1.505 1.505 0 0 0 .732-2.002 1.512 1.512 0 0 0-2.007-.73 1.505 1.505 0 0 0-.732 2.002"/><path stroke="#20201E" stroke-linecap="round" stroke-linejoin="round" stroke-width="3.026" d="M382.977 191.152c4.22-2.459 5.427-.882 12.502-11.071M124.52 290.554s-18.1-16.218-16.229-17.466c1.874-1.246 11.86-4.366 14.358-1.246 2.496 3.118-5.618 17.465-5.618 19.337 0 1.87 4.369 33.058 4.369 33.058l10.612 18.09m-85.812 43.7L12.082 414.83c17.69 1.992 142.357.588 142.357.588s13.724-15.4 20.59-27.63"/><path stroke="#20201E" stroke-linecap="round" stroke-linejoin="round" stroke-width="3.026" d="M11.493 421.298v8.23l144.123-.59 24.705-33.702m221.774-51.241c.062.016 14.745-10.446 17.06-12.346 6.709-5.504 13.375-12.884 16.077-21.555 2.18-7.001.293-14.804.548-21.972.35-9.76 1.125-19.611 3.33-29.148 5.535-30.69 35.938-28.56 35.938-28.56s-19.423 21.582-20.011 33.927c-.589 12.344.59 34.487.59 34.487M147.38 390.73s7.06-.589 12.942-1.177c5.883-.588 13.53 0 15.294-2.94 1.765-2.939 2.942-17.634-1.176-18.223-4.118-.588-8.235 0-8.235 0"/><path stroke="#20201E" stroke-linecap="round" stroke-linejoin="round" stroke-width="3.026" d="M153.262 373.093s6.472-7.642 8.236-8.23c1.765-.588 4.707 3.528 4.707 3.528m90.002-152.843c-1.764-3.527-12.941-27.63-16.471-28.804-3.53-1.177-13.53 2.35-17.059.588-3.529-1.763-6.47-5.877-6.471-9.991.002 6.225-22.44 8.14-25.883 4.7l-.589 9.4c-.087 1.405 8.029 1.705 8.824 1.77m4.706 125.212c-.811-1.014-12.361-6.181-16.471-15.872m-77.65 34.096l-2.941.588"/><path fill="#20201E" d="M305.334 296.955c7.156-6.055 3.988-16.067-1.032-22.532-9.07-11.68-34.43-29.665-47.836-14.779-6.484 7.199-14.538 15.716-15.453 26.16-.463 5.284.978 11.312 3.669 15.877 1.857 3.152 5.054 9.687 6.819 9.1 1.617-.54 7.236-5.68 7.72-7.33 1.617-5.509 8.872-13.86 15-9.097 2.046 1.607-.593 19.004 5.072 13.607 1.122-1.07 5.776-8.28 7.664-7.727 5.7 1.67 13.485.854 18.377-3.28m-71.794-42.718s6.068-4.719 11.311-2.519c5.244 2.202 10.242 5.895.728 16.434-9.515 10.539-19.781 10.482-24.765 21.864-2.118 4.838-3.231 10.562-6.128 14.9-1.67-4.006-1.94-9.498-1.515-13.86.915-9.363 16.857-34.394 20.369-36.82"/><path stroke="#20201E" stroke-linecap="round" stroke-linejoin="round" stroke-width="3.026" d="M310.168 152.72c3.688-1.64 6.825.215 6.825 3.259m5.491 14.304c1.156-5.771 3.425-11.59 1.96-17.44-1.653-6.611-7.574-8.976-13.53-6.662-14.116 5.487-15.293 8.23-14.314 13.325"/><path stroke="#20201E" stroke-linecap="round" stroke-linejoin="round" stroke-width="3.026" d="M310.131 152.844c-2.353.588-23.922 12.344-23.922 12.344l8.432 21.163s16.237-9.96 22.549-13.52"/><path stroke="#20201E" stroke-linecap="round" stroke-linejoin="round" stroke-width="3.026" d="M322.484 170.675c-.392-.784-7.06-15.675-11.765-11.169-1.106 1.059 2.941 7.25 5.686 9.014m112.554 135.795s-33.576 15.432-49.414 7.053c-13.333-7.053-10.981 21.163-10.981 21.163m-78.042-75.636s23.53-4.703 29.02-3.136c0 0 10.59 2.744 12.158 31.744 1.569 29 1.569 27.434 6.275 29m99.271 91.764l4.603 1.256m-20.215.013l12.492 3.519m-.853-18.856c.294 2.057.294 3.822 2.059 2.645m1.47-.588c1.47.294 3.825 0 7.06-1.469m2.058-47.909s-25.099 19.79-31.863 22.141m87.061-116.004s-15.327 6.086-22.745-6.27c-4.706-7.839 5.49-10.974 5.49-10.974m-220.4 208.885c8.126-4.873 20.148-1.088 28.438 1.683 4.147 1.39 12.936 17.041 6.856 15.17-.48-1.464-4.894-4.807-7.274-6.946-2.38-2.138-8.62-3.68-6.843-3.636 15.294.392 2.353 6.663 2.353 6.663s-.393 4.31-3.922 3.134c-3.53-1.175-6.274-2.351-11.765-2.742-5.49-.392-9.805.391-9.805.391s-9.47 3.761 4.284 6.387l75.681 8.505 21.986-40.28-67.812-7.845-11.263 14.388 7.16 1.288m186.23-239.554c.692 2.29 2.464 3.273 4.768 3.467 2.628.222 3.563-2.463 3.563-2.463m-262.245-38.213s-5.294.588-7.059 0c-1.765-.588-1.177 4.703 1.765 5.88m-103.527 52.473c1.493-1.079 2.918-1.994 4.953-1.838 1.743.133 3.709 1.168 4.412 2.631M461.554 78.317l3.303-6.275 6.102-3.47-6.102-3.469-3.35-6.321-3.349 6.321-6.102 3.47 6.148 3.47zM586.43 372.738l3.304-6.274 6.102-3.47-6.102-3.47-3.35-6.32-3.349 6.32-6.102 3.47 6.15 3.47z"/><g transform="translate(483.647 30.874)"><mask id="b" fill="#fff"><use xlink:href="#a"/></mask><path fill="#F66" d="M9.97.336L6.622 6.658l-6.103 3.47 6.15 3.47 3.348 6.273 3.304-6.273 6.102-3.47-6.102-3.47z" mask="url(#b)"/></g><path fill="#F66" d="M131.066 149.013l-3.35 6.321-6.102 3.47 6.149 3.47 3.348 6.274 3.305-6.274 6.102-3.47-6.102-3.47z"/><path fill="#FFF" d="M77.784 77.294l-3.35 6.322-6.102 3.47 6.149 3.47 3.348 6.273 3.305-6.273 6.102-3.47-6.102-3.47z"/><path stroke="#20201E" stroke-linecap="round" stroke-linejoin="round" stroke-width="3" d="M111.507 135.104c0-3.643-2.986-6.599-6.669-6.599-.17 0-.339.009-.506.022-1.368-3.852-5.075-6.613-9.436-6.613-.216 0-.43.007-.641.022-1.905-6.37-7.86-11.017-14.916-11.017-7.946 0-14.497 5.895-15.438 13.506a8.494 8.494 0 0 0-.808-.04c-4.75 0-8.6 3.877-8.6 8.658 0 4.783 3.85 8.659 8.6 8.659.084 0 .167-.005.25-.007v.007h41.966v-.018c3.464-.24 6.198-3.092 6.198-6.58zm358.343-26.981c0-5.333 4.222-9.656 9.433-9.656.24 0 .478.011.715.03 1.935-5.637 7.179-9.68 13.347-9.68.304 0 .607.013.907.032 2.696-9.321 11.118-16.124 21.099-16.124 11.239 0 20.505 8.629 21.835 19.768a11.38 11.38 0 0 1 1.144-.058c6.72 0 12.165 5.674 12.165 12.672 0 7-5.446 12.671-12.165 12.671-.119 0-.236-.006-.356-.01v.01h-59.357v-.025c-4.9-.35-8.768-4.527-8.768-9.63z"/></g></svg>