<svg id="Layer_1" xmlns="http://www.w3.org/2000/svg" viewBox="0 0 3531 617"><style>.st1{fill-opacity:.3}.st1,.st2{fill:#f66}</style><path d="M3224.7 0H298.3C133.6 0 0 136.8 0 305.5S133.6 611 298.3 611h2926.3c164.8 0 306.3-136.8 306.3-305.5S3389.4 0 3224.7 0z" fill="#ffefef"/><path class="st1" d="M2979.3 411h74.6c4 0 7.3 3.2 7.3 7.3 0 4-3.2 7.3-7.3 7.3h-74.6c-4 0-7.3-3.2-7.3-7.3s3.2-7.3 7.3-7.3zm-1090-338h74.6c4 0 7.3 3.2 7.3 7.3 0 4-3.2 7.3-7.3 7.3h-74.6c-4 0-7.3-3.2-7.3-7.3s3.2-7.3 7.3-7.3zm30-22h74.6c4 0 7.3 3.2 7.3 7.3 0 4-3.2 7.3-7.3 7.3h-74.6c-4 0-7.3-3.2-7.3-7.3s3.2-7.3 7.3-7.3z" transform="translate(-74 27)"/><path class="st2" d="M2304.1 574.8h74.6c4 0 7.3 3.2 7.3 7.3 0 4-3.2 7.3-7.3 7.3h-74.6c-4 0-7.3-3.2-7.3-7.3 0-4 3.3-7.3 7.3-7.3z" transform="translate(-74 27)"/><path class="st1" d="M2339.3 12h74.6c4 0 7.3 3.2 7.3 7.3 0 4-3.2 7.3-7.3 7.3h-74.6c-4 0-7.3-3.2-7.3-7.3s3.2-7.3 7.3-7.3zm-206 338h74.6c4 0 7.3 3.2 7.3 7.3 0 4-3.2 7.3-7.3 7.3h-74.6c-4 0-7.3-3.2-7.3-7.3s3.2-7.3 7.3-7.3zm-186 200h74.6c4 0 7.3 3.2 7.3 7.3 0 4-3.2 7.3-7.3 7.3h-74.6c-4 0-7.3-3.2-7.3-7.3s3.2-7.3 7.3-7.3z" transform="translate(-74 27)"/><path class="st2" d="M2407.4 574.8h25.1c4 0 7.3 3.2 7.3 7.3 0 4-3.2 7.3-7.3 7.3h-25.1c-4 0-7.3-3.2-7.3-7.3 0-4 3.2-7.3 7.3-7.3zm-467.1.2h65.1c4 0 7.3 3.2 7.3 7.3 0 4-3.2 7.3-7.3 7.3h-65.1c-4 0-7.3-3.2-7.3-7.3s3.2-7.3 7.3-7.3z" transform="translate(-74 27)"/><path class="st1" d="M3043 .4h25.1c4 0 7.3 3.2 7.3 7.3 0 4-3.2 7.3-7.3 7.3H3043c-4 0-7.3-3.2-7.3-7.3s3.3-7.3 7.3-7.3z" transform="translate(-74 27)"/><path d="M2989.2.4h25.1c4 0 7.3 3.2 7.3 7.3 0 4-3.2 7.3-7.3 7.3h-25.1c-4 0-7.3-3.2-7.3-7.3.1-4.1 3.3-7.3 7.3-7.3z" fill="#f7cdcd" transform="translate(-74 27)"/><path class="st1" d="M2237.3 350h25.1c4 0 7.3 3.2 7.3 7.3 0 4-3.2 7.3-7.3 7.3h-25.1c-4 0-7.3-3.2-7.3-7.3s3.2-7.3 7.3-7.3zM2460 549.4h25.1c4 0 7.3 3.2 7.3 7.3 0 4-3.2 7.3-7.3 7.3H2460c-4 0-7.3-3.2-7.3-7.3.1-4.1 3.3-7.3 7.3-7.3z" transform="translate(-74 27)"/><path class="st2" d="M3211.4 552.2h25.1c4 0 7.3 3.2 7.3 7.3 0 4-3.2 7.3-7.3 7.3h-25.1c-4 0-7.3-3.2-7.3-7.3 0-4 3.3-7.3 7.3-7.3zm-53.8 0h25.1c4 0 7.3 3.2 7.3 7.3 0 4-3.2 7.3-7.3 7.3h-25.1c-4 0-7.3-3.2-7.3-7.3.1-4 3.3-7.3 7.3-7.3z" transform="translate(-74 27)"/><path class="st1" d="M2955.1 410.6c3.9 0 7.1 3.2 7.1 7.1v.3c0 3.9-3.2 7.1-7.1 7.1-3.9 0-7.1-3.2-7.1-7.1v-.3c0-3.9 3.2-7.1 7.1-7.1z" transform="translate(-74 27)"/><path class="st2" d="M2279.8 574.8c3.9 0 7.1 3.2 7.1 7.1v.3c0 3.9-3.2 7.1-7.1 7.1-3.9 0-7.1-3.2-7.1-7.1v-.3c0-3.9 3.2-7.1 7.1-7.1z" transform="translate(-74 27)"/></svg>