<svg id="Layer_1" xmlns="http://www.w3.org/2000/svg" viewBox="0 0 1855 354"><style>.st1{fill-opacity:.2;fill:#ffd900}</style><path d="M1855 175.5C1855 78.6 1773.9 0 1673.8 0H181.2C81.1 0 0 78.6 0 175.5S81.1 351 181.2 351h1492.6c100.1 0 181.2-78.6 181.2-175.5" fill="#fffceb"/><path class="st1" d="M1559.2 291.4h-76.1c-4 0-7.2-3.2-7.2-7.2s3.2-7.2 7.2-7.2h76.1c4 0 7.2 3.2 7.2 7.2 0 3.9-3.2 7.2-7.2 7.2zm-1236-45h-76.1c-4 0-7.2-3.2-7.2-7.2s3.2-7.2 7.2-7.2h76.1c4 0 7.2 3.2 7.2 7.2 0 3.9-3.2 7.2-7.2 7.2zm-43-32h-76.1c-4 0-7.2-3.2-7.2-7.2s3.2-7.2 7.2-7.2h76.1c4 0 7.2 3.2 7.2 7.2 0 3.9-3.2 7.2-7.2 7.2zM1416.2 0h76.1c4 0 7.2 3.2 7.2 7.2s-3.2 7.2-7.2 7.2h-76.1c-4 0-7.2-3.2-7.2-7.2s3.2-7.2 7.2-7.2zm-856 0h76.1c4 0 7.2 3.2 7.2 7.2s-3.2 7.2-7.2 7.2h-76.1c-4 0-7.2-3.2-7.2-7.2s3.2-7.2 7.2-7.2zm227 291.6h-76.1c-4 0-7.2-3.2-7.2-7.2s3.2-7.2 7.2-7.2h76.1c4 0 7.2 3.2 7.2 7.2s-3.2 7.2-7.2 7.2z" transform="translate(-60 38)"/><path d="M1248 316h-76.1c-4 0-7.2-3.2-7.2-7.2s3.2-7.2 7.2-7.2h76.1c4 0 7.2 3.2 7.2 7.2-.1 4-3.3 7.2-7.2 7.2zm50.2 0h-21.5c-4 0-7.2-3.2-7.2-7.2s3.2-7.2 7.2-7.2h21.5c4 0 7.2 3.2 7.2 7.2s-3.2 7.2-7.2 7.2z" transform="translate(-60 38)" fill="#ffd900"/><path class="st1" d="M1454.6 291.6h-25.8c-4 0-7.2-3.2-7.2-7.2s3.2-7.2 7.2-7.2h25.8c4 0 7.2 3.2 7.2 7.2s-3.2 7.2-7.2 7.2zM1361.2 0h25.8c4 0 7.2 3.2 7.2 7.2s-3.2 7.2-7.2 7.2h-25.8c-4 0-7.2-3.2-7.2-7.2s3.2-7.2 7.2-7.2zm-855 0H532c4 0 7.2 3.2 7.2 7.2s-3.2 7.2-7.2 7.2h-25.8c-4 0-7.2-3.2-7.2-7.2s3.2-7.2 7.2-7.2zm1077.6 291.6c-4 0-7.2-3.2-7.2-7.2s3.2-7.2 7.2-7.2 7.2 3.2 7.2 7.2-3.2 7.2-7.2 7.2z" transform="translate(-60 38)"/></svg>