<svg xmlns="http://www.w3.org/2000/svg" xmlns:xlink="http://www.w3.org/1999/xlink" viewBox="0 0 2916 628"><defs><path id="a" d="M2631.1 0H284.9C127.5 0 0 133.9 0 299s127.5 299 284.9 299h2346.2c157.3 0 284.9-133.9 284.9-299S2788.5 0 2631.1 0z"/></defs><clipPath id="b"><use xlink:href="#a" overflow="visible"/></clipPath><g clip-path="url(#b)"><path fill="#fffceb" d="M-5-5h2926v608H-5z"/></g><defs><path id="c" d="M2029 554h-84c-4.4 0-8-3.6-8-8s3.6-8 8-8h84c4.4 0 8 3.6 8 8s-3.6 8-8 8z"/></defs><clipPath id="d"><use xlink:href="#c" overflow="visible"/></clipPath><g clip-path="url(#d)"><defs><path id="e" d="M1678-157h1440v3615H1678z"/></defs><clipPath id="f"><use xlink:href="#e" overflow="visible"/></clipPath><path opacity=".2" clip-path="url(#f)" fill="#ffd900" d="M1932 533h110v26h-110z"/></g><defs><path id="g" d="M2415 604h-84c-4.4 0-8-3.6-8-8s3.6-8 8-8h84c4.4 0 8 3.6 8 8s-3.6 8-8 8z"/></defs><clipPath id="h"><use xlink:href="#g" overflow="visible"/></clipPath><g clip-path="url(#h)"><defs><path id="i" d="M1678-157h1440v3615H1678z"/></defs><clipPath id="j"><use xlink:href="#i" overflow="visible"/></clipPath><path clip-path="url(#j)" fill="#ffd900" d="M2318 583h110v26h-110z"/></g><defs><path id="k" d="M1802 72h-84c-4.4 0-8-3.6-8-8s3.6-8 8-8h84c4.4 0 8 3.6 8 8s-3.6 8-8 8z"/></defs><clipPath id="l"><use xlink:href="#k" overflow="visible"/></clipPath><g clip-path="url(#l)"><defs><path id="m" d="M1678-157h1440v3615H1678z"/></defs><clipPath id="n"><use xlink:href="#m" overflow="visible"/></clipPath><path opacity=".2" clip-path="url(#n)" fill="#ffd900" d="M1705 51h110v26h-110z"/></g><defs><path id="o" d="M2554 56h-24c-4.4 0-8-3.6-8-8s3.6-8 8-8h24c4.4 0 8 3.6 8 8s-3.6 8-8 8z"/></defs><clipPath id="p"><use xlink:href="#o" overflow="visible"/></clipPath><g clip-path="url(#p)"><defs><path id="q" d="M1678-157h1440v3615H1678z"/></defs><clipPath id="r"><use xlink:href="#q" overflow="visible"/></clipPath><path clip-path="url(#r)" fill="#ffd900" d="M2517 35h50v26h-50z"/></g><defs><path id="s" d="M1914 554h-29c-4.4 0-8-3.6-8-8s3.6-8 8-8h29c4.4 0 8 3.6 8 8s-3.6 8-8 8z"/></defs><clipPath id="t"><use xlink:href="#s" overflow="visible"/></clipPath><g clip-path="url(#t)"><defs><path id="u" d="M1678-157h1440v3615H1678z"/></defs><clipPath id="v"><use xlink:href="#u" overflow="visible"/></clipPath><path opacity=".2" clip-path="url(#v)" fill="#ffd900" d="M1872 533h55v26h-55z"/></g><defs><path id="w" d="M2479 628h-76c-4.4 0-8-3.6-8-8s3.6-8 8-8h76c4.4 0 8 3.6 8 8s-3.6 8-8 8z"/></defs><clipPath id="x"><use xlink:href="#w" overflow="visible"/></clipPath><g clip-path="url(#x)"><defs><path id="y" d="M1678-157h1440v3615H1678z"/></defs><clipPath id="z"><use xlink:href="#y" overflow="visible"/></clipPath><path opacity=".2" clip-path="url(#z)" fill="#ffd900" d="M2390 607h102v26h-102z"/></g><defs><path id="A" d="M2845 80h-76c-4.4 0-8-3.6-8-8s3.6-8 8-8h76c4.4 0 8 3.6 8 8s-3.6 8-8 8z"/></defs><clipPath id="B"><use xlink:href="#A" overflow="visible"/></clipPath><g clip-path="url(#B)"><defs><path id="C" d="M1678-157h1440v3615H1678z"/></defs><clipPath id="D"><use xlink:href="#C" overflow="visible"/></clipPath><path clip-path="url(#D)" fill="#ffd900" d="M2756 59h102v26h-102z"/></g><defs><path id="E" d="M2736 80h-35c-4.4 0-8-3.6-8-8s3.6-8 8-8h35c4.4 0 8 3.6 8 8s-3.6 8-8 8z"/></defs><clipPath id="F"><use xlink:href="#E" overflow="visible"/></clipPath><g clip-path="url(#F)"><defs><path id="G" d="M1678-157h1440v3615H1678z"/></defs><clipPath id="H"><use xlink:href="#G" overflow="visible"/></clipPath><path clip-path="url(#H)" fill="#ffd900" d="M2688 59h61v26h-61z"/></g><defs><path id="I" d="M2056 554c-4.4 0-8-3.6-8-8s3.6-8 8-8 8 3.6 8 8-3.6 8-8 8z"/></defs><clipPath id="J"><use xlink:href="#I" overflow="visible"/></clipPath><g clip-path="url(#J)"><defs><path id="K" d="M1678-157h1440v3615H1678z"/></defs><clipPath id="L"><use xlink:href="#K" overflow="visible"/></clipPath><path opacity=".2" clip-path="url(#L)" fill="#ffd900" d="M2043 533h26v26h-26z"/></g><defs><path id="M" d="M1733 122c-4.4 0-8-3.6-8-8s3.6-8 8-8 8 3.6 8 8-3.6 8-8 8z"/></defs><clipPath id="N"><use xlink:href="#M" overflow="visible"/></clipPath><g clip-path="url(#N)"><defs><path id="O" d="M1678-157h1440v3615H1678z"/></defs><clipPath id="P"><use xlink:href="#O" overflow="visible"/></clipPath><path clip-path="url(#P)" fill="#ffd900" d="M1720 101h26v26h-26z"/></g></svg>